<?xml version="1.0" encoding="us-ascii" standalone="no"?><svg xmlns="http://www.w3.org/2000/svg" xmlns:xlink="http://www.w3.org/1999/xlink" contentStyleType="text/css" height="326px" preserveAspectRatio="none" style="width:891px;height:326px;background:#FFFFFF;" version="1.1" viewBox="0 0 891 326" width="891px" zoomAndPan="magnify"><defs/><g><!--class GlobalUBO--><g id="elem_GlobalUBO"><rect codeLine="2" fill="#F1F1F1" height="83.2188" id="GlobalUBO" rx="2.5" ry="2.5" style="stroke:#181818;stroke-width:0.5;" width="447" x="7" y="121.5"/><ellipse cx="191.25" cy="137.5" fill="#F1F1F1" rx="11" ry="11" style="stroke:#181818;stroke-width:1.0;"/><path d="M189.3594,142.0625 Q189.1406,142.3281 189,142.4063 Q188.8594,142.4844 188.6719,142.4844 Q188.2813,142.4844 188.0313,142.2188 Q187.7969,141.9531 187.7969,141.3594 L187.7969,140.2031 Q187.7969,139.5938 188.0313,139.3438 Q188.2813,139.0781 188.6719,139.0781 Q188.9688,139.0781 189.1719,139.2344 Q189.375,139.3906 189.4844,139.7656 Q189.5938,140.125 189.7031,140.2656 Q189.9531,140.5156 190.5625,140.7813 Q191.1719,141.0469 191.9063,141.0469 Q193.0469,141.0469 193.7656,140.5156 Q194.2344,140.1875 194.2344,139.7188 Q194.2344,139.4063 194.0156,139.125 Q193.7969,138.8438 193.2813,138.6719 Q192.9531,138.5469 191.7969,138.3281 Q190.4063,138.0625 189.6875,137.7031 Q188.9688,137.3438 188.5469,136.6875 Q188.1406,136.0156 188.1406,135.2344 Q188.1406,134.0156 189.1563,133.1094 Q190.1875,132.1875 191.8281,132.1875 Q192.4844,132.1875 193.0313,132.3281 Q193.5938,132.4688 194.0625,132.7656 Q194.3906,132.4531 194.7188,132.4531 Q195.0938,132.4531 195.3281,132.7188 Q195.5625,132.9688 195.5625,133.5781 L195.5625,134.8594 Q195.5625,135.4688 195.3281,135.7344 Q195.0938,135.9844 194.7188,135.9844 Q194.4063,135.9844 194.1719,135.7969 Q193.9844,135.6563 193.8906,135.2344 Q193.8125,134.8125 193.6719,134.625 Q193.4219,134.3125 192.9375,134.1094 Q192.4688,133.8906 191.8281,133.8906 Q190.9063,133.8906 190.375,134.3125 Q189.8438,134.7344 189.8438,135.2031 Q189.8438,135.5156 190.0625,135.8125 Q190.2813,136.1094 190.7031,136.2813 Q190.9844,136.3906 192.2813,136.6563 Q193.5938,136.9063 194.2969,137.2188 Q195,137.5156 195.4688,138.1719 Q195.9375,138.8281 195.9375,139.7344 Q195.9375,141 195.0469,141.75 Q193.8594,142.75 192.0313,142.75 Q191.3281,142.75 190.6563,142.5781 Q190,142.4063 189.3594,142.0625 Z " fill="#000000"/><text fill="#000000" font-family="sans-serif" font-size="14" lengthAdjust="spacing" textLength="70" x="211.75" y="143.2285">GlobalUBO</text><line style="stroke:#181818;stroke-width:0.5;" x1="8" x2="453" y1="153.5" y2="153.5"/><text fill="#000000" font-family="sans-serif" font-size="14" lengthAdjust="spacing" textLength="195" x="13" y="172.0332">glm::mat4 ProjectionView{1.0f};</text><line style="stroke:#181818;stroke-width:0.5;" x1="8" x2="453" y1="179.1094" y2="179.1094"/><text fill="#000000" font-family="sans-serif" font-size="14" lengthAdjust="spacing" textLength="435" x="13" y="197.6426">glm::vec3 LightDirection = glm::normalize(glm::vec3(1.0f, -3.0f, -1.0));</text></g><!--class App--><g id="elem_App"><rect codeLine="8" fill="#F1F1F1" height="312.1406" id="App" rx="2.5" ry="2.5" style="stroke:#181818;stroke-width:0.5;" width="395" x="489" y="7"/><ellipse cx="669.75" cy="23" fill="#ADD1B2" rx="11" ry="11" style="stroke:#181818;stroke-width:1.0;"/><path d="M672.5156,18.875 Q672.6719,18.6563 672.8594,18.5469 Q673.0469,18.4375 673.2656,18.4375 Q673.6406,18.4375 673.875,18.7031 Q674.1094,18.9531 674.1094,19.5625 L674.1094,21.0156 Q674.1094,21.625 673.875,21.8906 Q673.6406,22.1563 673.2656,22.1563 Q672.9219,22.1563 672.7188,21.9531 Q672.5156,21.7656 672.4063,21.25 Q672.3594,20.8906 672.1719,20.7031 Q671.8438,20.3281 671.2344,20.1094 Q670.625,19.8906 670,19.8906 Q669.2344,19.8906 668.5938,20.2188 Q667.9688,20.5469 667.4688,21.2969 Q666.9844,22.0469 666.9844,23.0781 L666.9844,24.1719 Q666.9844,25.4063 667.875,26.2344 Q668.7656,27.0469 670.3594,27.0469 Q671.2969,27.0469 671.9531,26.7969 Q672.3438,26.6406 672.7656,26.2031 Q673.0313,25.9375 673.1719,25.8594 Q673.3281,25.7813 673.5313,25.7813 Q673.8594,25.7813 674.1094,26.0469 Q674.375,26.2969 674.375,26.6406 Q674.375,26.9844 674.0313,27.3906 Q673.5313,27.9688 672.7344,28.2969 Q671.6563,28.75 670.3594,28.75 Q668.8438,28.75 667.6406,28.125 Q666.6563,27.625 665.9688,26.5625 Q665.2813,25.4844 665.2813,24.2031 L665.2813,23.0469 Q665.2813,21.7188 665.8906,20.5781 Q666.5156,19.4219 667.6094,18.8125 Q668.7031,18.1875 669.9375,18.1875 Q670.6719,18.1875 671.3125,18.3594 Q671.9688,18.5156 672.5156,18.875 Z " fill="#000000"/><text fill="#000000" font-family="sans-serif" font-size="14" lengthAdjust="spacing" textLength="25" x="690.25" y="28.7285">App</text><line style="stroke:#181818;stroke-width:0.5;" x1="490" x2="883" y1="39" y2="39"/><ellipse cx="500" cy="53.3047" fill="none" rx="3" ry="3" style="stroke:#038048;stroke-width:1.0;"/><text fill="#000000" font-family="sans-serif" font-size="14" lengthAdjust="spacing" textLength="156" x="509" y="57.5332">const int m_Width = 800;</text><ellipse cx="500" cy="70.9141" fill="none" rx="3" ry="3" style="stroke:#038048;stroke-width:1.0;"/><text fill="#000000" font-family="sans-serif" font-size="14" lengthAdjust="spacing" textLength="160" x="509" y="75.1426">const int m_Height = 600;</text><text fill="#000000" font-family="sans-serif" font-size="14" lengthAdjust="spacing" textLength="4" x="509" y="92.752">&#160;</text><text fill="#000000" font-family="sans-serif" font-size="14" lengthAdjust="spacing" textLength="4" x="509" y="110.3613">&#160;</text><rect fill="none" height="6" style="stroke:#C82930;stroke-width:1.0;" width="6" x="497" y="120.7422"/><text fill="#000000" font-family="sans-serif" font-size="14" lengthAdjust="spacing" textLength="369" x="509" y="127.9707">Window m_Window{m_Width, m_Height, "Vulkan Warper"};</text><rect fill="none" height="6" style="stroke:#C82930;stroke-width:1.0;" width="6" x="497" y="138.3516"/><text fill="#000000" font-family="sans-serif" font-size="14" lengthAdjust="spacing" textLength="191" x="509" y="145.5801">Device m_Device{m_Window};</text><rect fill="none" height="6" style="stroke:#C82930;stroke-width:1.0;" width="6" x="497" y="155.9609"/><text fill="#000000" font-family="sans-serif" font-size="14" lengthAdjust="spacing" textLength="295" x="509" y="163.1895">Renderer m_Renderer{m_Window, m_Device};</text><rect fill="none" height="6" style="stroke:#C82930;stroke-width:1.0;" width="6" x="497" y="173.5703"/><text fill="#000000" font-family="sans-serif" font-size="14" lengthAdjust="spacing" textLength="315" x="509" y="180.7988">std::unique_ptr&lt;DescriptorPool&gt; up_GlobalPool{};</text><rect fill="none" height="6" style="stroke:#C82930;stroke-width:1.0;" width="6" x="497" y="191.1797"/><text fill="#000000" font-family="sans-serif" font-size="14" lengthAdjust="spacing" textLength="313" x="509" y="198.4082">std::vector&lt;DivineGameObject&gt; m_GameObjects;</text><line style="stroke:#181818;stroke-width:0.5;" x1="490" x2="883" y1="205.4844" y2="205.4844"/><ellipse cx="500" cy="219.7891" fill="#84BE84" rx="3" ry="3" style="stroke:#038048;stroke-width:1.0;"/><text fill="#000000" font-family="sans-serif" font-size="14" lengthAdjust="spacing" textLength="39" x="509" y="224.0176">App();</text><ellipse cx="500" cy="237.3984" fill="#84BE84" rx="3" ry="3" style="stroke:#038048;stroke-width:1.0;"/><text fill="#000000" font-family="sans-serif" font-size="14" lengthAdjust="spacing" textLength="47" x="509" y="241.627">~App();</text><ellipse cx="500" cy="255.0078" fill="#84BE84" rx="3" ry="3" style="stroke:#038048;stroke-width:1.0;"/><text fill="#000000" font-family="sans-serif" font-size="14" lengthAdjust="spacing" textLength="170" x="509" y="259.2363">App(const App &amp;) = delete;</text><ellipse cx="500" cy="272.6172" fill="#84BE84" rx="3" ry="3" style="stroke:#038048;stroke-width:1.0;"/><text fill="#000000" font-family="sans-serif" font-size="14" lengthAdjust="spacing" textLength="245" x="509" y="276.8457">App &amp;operator=(const App &amp;) = delete;</text><ellipse cx="500" cy="290.2266" fill="#84BE84" rx="3" ry="3" style="stroke:#038048;stroke-width:1.0;"/><text fill="#000000" font-family="sans-serif" font-size="14" lengthAdjust="spacing" textLength="65" x="509" y="294.4551">void run();</text><rect fill="#F24D5C" height="6" style="stroke:#C82930;stroke-width:1.0;" width="6" x="497" y="304.8359"/><text fill="#000000" font-family="sans-serif" font-size="14" lengthAdjust="spacing" textLength="162" x="509" y="312.0645">void LoadGameObjects();</text></g><!--SRC=[VP9HQy8m4CVV-oaE7yIoTZWSGreLDWhkGL06qvU1nEQcsTAaIzCAA-wpBx4rAepbfVVl_Uv_t2M5LcMgOShbXl3NfxbNUs3EbcTHb15z3mibFp3LJ8ebmtrzTzj_FyHdfi9q03EstUc4gOQ3SPCIKcM4is_iER9domC81yt7AD-FlOFdfPmK1JpcUTl_niOzFsx5sy-Lj2ALej0sWgvlEbBagF42WAxCKH4jrVX_jfACWYg5jMz_DJmJ6hBrYb6zCqN3VZ_-8_sCTdQJVx3v8n0sbZD9w9HaED_O_HNEFeGL4rJkZzusgDicWRCBeBCi-ISHi2BAJD5fDnv2WXLBqO1DK9yy7F22Wg92PP1JwA30rJcyq3IAIi6-IbpdMeqIB5B5ShErXPHy0cM-Rfw6bVLrcRbGmuqILZ61vqadfil5tEPwVm40]--></g></svg>