<?xml version="1.0" encoding="us-ascii" standalone="no"?><svg xmlns="http://www.w3.org/2000/svg" xmlns:xlink="http://www.w3.org/1999/xlink" contentStyleType="text/css" height="4480.2083px" preserveAspectRatio="none" style="width:694px;height:4480px;" version="1.1" viewBox="0 0 694 4480" width="694.7917px" zoomAndPan="magnify"><defs><linearGradient id="g9xbcy1695nr60" x1="0%" x2="100%" y1="0%" y2="100%"><stop offset="0%" stop-color="#FFFFFF"/><stop offset="100%" stop-color="#FFA500"/></linearGradient><linearGradient id="g9xbcy1695nr61" x1="50%" x2="50%" y1="0%" y2="100%"><stop offset="0%" stop-color="#F18E3E"/><stop offset="100%" stop-color="#EC7211"/></linearGradient><linearGradient id="g9xbcy1695nr62" x1="0%" x2="100%" y1="0%" y2="100%"><stop offset="0%" stop-color="#FFC0CB"/><stop offset="100%" stop-color="#FFFF00"/></linearGradient></defs><g><ellipse cx="347.9167" cy="20.8333" fill="#0073BB" rx="10.4167" ry="10.4167" style="stroke:#222222;stroke-width:1.0416666666666667;"/><rect fill="url(#g9xbcy1695nr60)" height="4316.6494" rx="4.1667" ry="4.1667" style="stroke:#EC7211;stroke-width:1.5625;" width="671.875" x="11.4583" y="41.6667"/><path d="M57.2917,41.6667 L57.2917,59.9833 L46.875,70.4 L11.4583,70.4 " fill="none" style="stroke:#EC7211;stroke-width:1.5625;"/><text fill="#EC7211" font-family="Verdana" font-size="12.5" lengthAdjust="spacing" textLength="25" x="19.7917" y="60.4838">App</text><rect fill="none" height="374.4832" rx="4.1667" ry="4.1667" style="stroke:#4E5D6C;stroke-width:1.5625;" width="271.875" x="211.9792" y="80.8167"/><path d="M285.9375,80.8167 L285.9375,99.1333 L275.5208,109.55 L211.9792,109.55 " fill="none" style="stroke:#4E5D6C;stroke-width:1.5625;"/><text fill="#EC7211" font-family="Verdana" font-size="12.5" lengthAdjust="spacing" textLength="53.125" x="220.3125" y="99.6338">Window</text><rect fill="url(#g9xbcy1695nr61)" height="46.4417" rx="4.1667" ry="4.1667" style="stroke:#EC7211;stroke-width:0.5208333333333334;" width="90.625" x="302.6042" y="127.2583"/><text fill="#FFFFFF" font-family="Verdana" font-size="12.5" lengthAdjust="spacing" textLength="59.375" x="318.2292" y="155.4504">glfwInit()</text><rect fill="url(#g9xbcy1695nr61)" height="46.4417" rx="4.1667" ry="4.1667" style="stroke:#EC7211;stroke-width:0.5208333333333334;" width="147.9167" x="273.9583" y="194.5333"/><text fill="#FFFFFF" font-family="Verdana" font-size="12.5" lengthAdjust="spacing" textLength="116.6667" x="289.5833" y="222.7254">glfwWindowHint()</text><rect fill="url(#g9xbcy1695nr61)" height="46.4417" rx="4.1667" ry="4.1667" style="stroke:#EC7211;stroke-width:0.5208333333333334;" width="166.6667" x="264.5833" y="261.8083"/><text fill="#FFFFFF" font-family="Verdana" font-size="12.5" lengthAdjust="spacing" textLength="135.4167" x="280.2083" y="290.0004">glfwCreateWindow()</text><rect fill="url(#g9xbcy1695nr61)" height="46.4417" rx="4.1667" ry="4.1667" style="stroke:#EC7211;stroke-width:0.5208333333333334;" width="220.8333" x="237.5" y="329.0833"/><text fill="#FFFFFF" font-family="Verdana" font-size="12.5" lengthAdjust="spacing" textLength="189.5833" x="253.125" y="357.2754">glfwSetWindowUserPointer()</text><rect fill="url(#g9xbcy1695nr61)" height="46.4417" rx="4.1667" ry="4.1667" style="stroke:#EC7211;stroke-width:0.5208333333333334;" width="251.0417" x="222.3958" y="396.3582"/><text fill="#FFFFFF" font-family="Verdana" font-size="12.5" lengthAdjust="spacing" textLength="219.7917" x="238.0208" y="424.5504">glfwSetFramebufferSizeCallback()</text><rect fill="none" height="544.754" rx="4.1667" ry="4.1667" style="stroke:#4E5D6C;stroke-width:1.5625;" width="302.0833" x="212.5" y="465.7166"/><path d="M276.0417,465.7166 L276.0417,484.0332 L265.625,494.4499 L212.5,494.4499 " fill="none" style="stroke:#4E5D6C;stroke-width:1.5625;"/><text fill="#EC7211" font-family="Verdana" font-size="12.5" lengthAdjust="spacing" textLength="42.7083" x="220.8333" y="484.5337">Device</text><rect fill="url(#g9xbcy1695nr61)" height="46.4417" rx="4.1667" ry="4.1667" style="stroke:#EC7211;stroke-width:0.5208333333333334;" width="143.75" x="276.0417" y="512.1582"/><text fill="#FFFFFF" font-family="Verdana" font-size="12.5" lengthAdjust="spacing" textLength="112.5" x="291.6667" y="540.3503">CreateInstance()</text><rect fill="url(#g9xbcy1695nr61)" height="46.4417" rx="4.1667" ry="4.1667" style="stroke:#EC7211;stroke-width:0.5208333333333334;" width="195.8333" x="250" y="636.5957"/><text fill="#FFFFFF" font-family="Verdana" font-size="12.5" lengthAdjust="spacing" textLength="164.5833" x="265.625" y="664.7878">SetUpDebugMessenger()</text><polygon fill="#EEEEEE" points="235.4167,579.4332,460.4167,579.4332,472.9167,592.2373,460.4167,605.0415,235.4167,605.0415,222.9167,592.2373,235.4167,579.4332" style="stroke:#BEBEBE;stroke-width:0.5208333333333334;"/><text fill="#FF69B4" font-family="Verdana" font-size="12.5" lengthAdjust="spacing" textLength="27.0833" x="357.2917" y="622.817">true</text><text fill="#4E5D6C" font-family="Verdana" font-size="12.5" lengthAdjust="spacing" textLength="214.5833" x="240.625" y="597.2087">Device::s_EnableValidationLayer</text><text fill="#FF0000" font-family="Verdana" font-size="12.5" lengthAdjust="spacing" textLength="31.25" x="478.125" y="584.4045">false</text><polygon fill="#EEEEEE" points="347.9167,703.8706,360.4167,716.3706,347.9167,728.8706,335.4167,716.3706,347.9167,703.8706" style="stroke:#BEBEBE;stroke-width:0.5208333333333334;"/><rect fill="url(#g9xbcy1695nr61)" height="46.4417" rx="4.1667" ry="4.1667" style="stroke:#EC7211;stroke-width:0.5208333333333334;" width="135.4167" x="280.2083" y="749.704"/><text fill="#FFFFFF" font-family="Verdana" font-size="12.5" lengthAdjust="spacing" textLength="104.1667" x="295.8333" y="777.8961">CreateSurface()</text><rect fill="url(#g9xbcy1695nr61)" height="46.4417" rx="4.1667" ry="4.1667" style="stroke:#EC7211;stroke-width:0.5208333333333334;" width="161.4583" x="267.1875" y="816.979"/><text fill="#FFFFFF" font-family="Verdana" font-size="12.5" lengthAdjust="spacing" textLength="130.2083" x="282.8125" y="845.1711">PickPhysicalDevice()</text><rect fill="url(#g9xbcy1695nr61)" height="46.4417" rx="4.1667" ry="4.1667" style="stroke:#EC7211;stroke-width:0.5208333333333334;" width="173.9583" x="260.9375" y="884.2539"/><text fill="#FFFFFF" font-family="Verdana" font-size="12.5" lengthAdjust="spacing" textLength="142.7083" x="276.5625" y="912.4461">CreateLogicalDevice()</text><rect fill="url(#g9xbcy1695nr61)" height="46.4417" rx="4.1667" ry="4.1667" style="stroke:#EC7211;stroke-width:0.5208333333333334;" width="180.2083" x="257.8125" y="951.5289"/><text fill="#FFFFFF" font-family="Verdana" font-size="12.5" lengthAdjust="spacing" textLength="148.9583" x="273.4375" y="979.7211">CreateCommandPool()</text><rect fill="none" height="624.8332" rx="4.1667" ry="4.1667" style="stroke:#4E5D6C;stroke-width:1.5625;" width="235.4167" x="230.2083" y="1020.8872"/><path d="M311.4583,1020.8872 L311.4583,1039.2039 L301.0417,1049.6206 L230.2083,1049.6206 " fill="none" style="stroke:#4E5D6C;stroke-width:1.5625;"/><text fill="#EC7211" font-family="Verdana" font-size="12.5" lengthAdjust="spacing" textLength="60.4167" x="238.5417" y="1039.7044">Renderer</text><rect fill="url(#g9xbcy1695nr61)" height="46.4417" rx="4.1667" ry="4.1667" style="stroke:#EC7211;stroke-width:0.5208333333333334;" width="173.9583" x="260.9375" y="1067.3289"/><text fill="#FFFFFF" font-family="Verdana" font-size="12.5" lengthAdjust="spacing" textLength="142.7083" x="276.5625" y="1095.521">RecreateSwapChain()</text><rect fill="none" height="441.7582" rx="4.1667" ry="4.1667" style="stroke:#4E5D6C;stroke-width:1.5625;" width="214.5833" x="240.625" y="1124.1872"/><path d="M335.4167,1124.1872 L335.4167,1142.5039 L325,1152.9205 L240.625,1152.9205 " fill="none" style="stroke:#4E5D6C;stroke-width:1.5625;"/><text fill="#EC7211" font-family="Verdana" font-size="12.5" lengthAdjust="spacing" textLength="73.9583" x="248.9583" y="1143.0044">SwapChain</text><rect fill="url(#g9xbcy1695nr61)" height="46.4417" rx="4.1667" ry="4.1667" style="stroke:#EC7211;stroke-width:0.5208333333333334;" width="160.4167" x="267.7083" y="1170.6289"/><text fill="#FFFFFF" font-family="Verdana" font-size="12.5" lengthAdjust="spacing" textLength="129.1667" x="283.3333" y="1198.821">CreateSwapChain()</text><rect fill="url(#g9xbcy1695nr61)" height="46.4417" rx="4.1667" ry="4.1667" style="stroke:#EC7211;stroke-width:0.5208333333333334;" width="166.6667" x="264.5833" y="1237.9038"/><text fill="#FFFFFF" font-family="Verdana" font-size="12.5" lengthAdjust="spacing" textLength="135.4167" x="280.2083" y="1266.096">CreateImageViews()</text><rect fill="url(#g9xbcy1695nr61)" height="46.4417" rx="4.1667" ry="4.1667" style="stroke:#EC7211;stroke-width:0.5208333333333334;" width="164.5833" x="265.625" y="1305.1788"/><text fill="#FFFFFF" font-family="Verdana" font-size="12.5" lengthAdjust="spacing" textLength="133.3333" x="281.25" y="1333.371">CreateRenderPass()</text><rect fill="url(#g9xbcy1695nr61)" height="46.4417" rx="4.1667" ry="4.1667" style="stroke:#EC7211;stroke-width:0.5208333333333334;" width="193.75" x="251.0417" y="1372.4538"/><text fill="#FFFFFF" font-family="Verdana" font-size="12.5" lengthAdjust="spacing" textLength="162.5" x="266.6667" y="1400.646">CreateDepthResources()</text><rect fill="url(#g9xbcy1695nr61)" height="46.4417" rx="4.1667" ry="4.1667" style="stroke:#EC7211;stroke-width:0.5208333333333334;" width="172.9167" x="261.4583" y="1439.7288"/><text fill="#FFFFFF" font-family="Verdana" font-size="12.5" lengthAdjust="spacing" textLength="141.6667" x="277.0833" y="1467.9209">CreateFrameBuffers()</text><rect fill="url(#g9xbcy1695nr61)" height="46.4417" rx="4.1667" ry="4.1667" style="stroke:#EC7211;stroke-width:0.5208333333333334;" width="166.6667" x="264.5833" y="1507.0038"/><text fill="#FFFFFF" font-family="Verdana" font-size="12.5" lengthAdjust="spacing" textLength="135.4167" x="280.2083" y="1535.1959">CreateSyncObjects()</text><rect fill="url(#g9xbcy1695nr61)" height="46.4417" rx="4.1667" ry="4.1667" style="stroke:#EC7211;stroke-width:0.5208333333333334;" width="197.9167" x="248.9583" y="1586.7788"/><text fill="#FFFFFF" font-family="Verdana" font-size="12.5" lengthAdjust="spacing" textLength="166.6667" x="264.5833" y="1614.9709">CreateCommandBuffers()</text><rect fill="url(#g9xbcy1695nr62)" height="105.3833" rx="4.1667" ry="4.1667" style="stroke:#EC7211;stroke-width:1.5625;" width="182.2917" x="256.7708" y="1656.1371"/><path d="M397.3958,1656.1371 L397.3958,1674.4537 L386.9792,1684.8704 L256.7708,1684.8704 " fill="none" style="stroke:#EC7211;stroke-width:1.5625;"/><text fill="#EC7211" font-family="Verdana" font-size="12.5" lengthAdjust="spacing" textLength="119.7917" x="265.1042" y="1674.9542">LoadGameObjects</text><rect fill="url(#g9xbcy1695nr61)" height="46.4417" rx="4.1667" ry="4.1667" style="stroke:#EC7211;stroke-width:0.5208333333333334;" width="161.4583" x="267.1875" y="1702.5787"/><text fill="#FFFFFF" font-family="Verdana" font-size="12.5" lengthAdjust="spacing" textLength="130.2083" x="282.8125" y="1730.7709">LoadGameObjects()</text><rect fill="url(#g9xbcy1695nr62)" height="2458.079" rx="4.1667" ry="4.1667" style="stroke:#EC7211;stroke-width:1.5625;" width="651.0417" x="21.875" y="1771.9371"/><path d="M64.5833,1771.9371 L64.5833,1790.2537 L54.1667,1800.6704 L21.875,1800.6704 " fill="none" style="stroke:#EC7211;stroke-width:1.5625;"/><text fill="#EC7211" font-family="Verdana" font-size="12.5" lengthAdjust="spacing" textLength="21.875" x="30.2083" y="1790.7542">run</text><rect fill="none" height="1297.583" rx="4.1667" ry="4.1667" style="stroke:#4E5D6C;stroke-width:1.5625;" width="342.7083" x="176.5625" y="1811.087"/><path d="M292.1875,1811.087 L292.1875,1829.4037 L281.7708,1839.8204 L176.5625,1839.8204 " fill="none" style="stroke:#4E5D6C;stroke-width:1.5625;"/><text fill="#EC7211" font-family="Verdana" font-size="12.5" lengthAdjust="spacing" textLength="94.7917" x="184.8958" y="1829.9042">RenderSystem</text><rect fill="url(#g9xbcy1695nr61)" height="46.4417" rx="4.1667" ry="4.1667" style="stroke:#EC7211;stroke-width:0.5208333333333334;" width="182.2917" x="256.7708" y="1857.5287"/><text fill="#FFFFFF" font-family="Verdana" font-size="12.5" lengthAdjust="spacing" textLength="151.0417" x="272.3958" y="1885.7208">CreatePipelineLayout()</text><rect fill="none" height="1181.783" rx="4.1667" ry="4.1667" style="stroke:#4E5D6C;stroke-width:1.5625;" width="321.875" x="186.9792" y="1914.387"/><path d="M315.1042,1914.387 L315.1042,1932.7037 L304.6875,1943.1203 L186.9792,1943.1203 " fill="none" style="stroke:#4E5D6C;stroke-width:1.5625;"/><text fill="#EC7211" font-family="Verdana" font-size="12.5" lengthAdjust="spacing" textLength="107.2917" x="195.3125" y="1933.2041">GraphicsPipeline</text><rect fill="url(#g9xbcy1695nr61)" height="46.4417" rx="4.1667" ry="4.1667" style="stroke:#EC7211;stroke-width:0.5208333333333334;" width="180.2083" x="257.8125" y="1960.8287"/><text fill="#FFFFFF" font-family="Verdana" font-size="12.5" lengthAdjust="spacing" textLength="148.9583" x="273.4375" y="1989.0208">CreateShaderModule()</text><rect fill="url(#g9xbcy1695nr61)" height="46.4417" rx="4.1667" ry="4.1667" style="stroke:#EC7211;stroke-width:0.5208333333333334;" width="254.1667" x="220.8333" y="2028.1036"/><text fill="#FFFFFF" font-family="Verdana" font-size="12.5" lengthAdjust="spacing" textLength="222.9167" x="236.4583" y="2056.2958">VkPipelineShaderStageCreateInfo</text><rect fill="url(#g9xbcy1695nr61)" height="46.4417" rx="4.1667" ry="4.1667" style="stroke:#EC7211;stroke-width:0.5208333333333334;" width="282.2917" x="206.7708" y="2095.3786"/><text fill="#FFFFFF" font-family="Verdana" font-size="12.5" lengthAdjust="spacing" textLength="251.0417" x="222.3958" y="2123.5708">VkPipelineVertexInputStateCreateInfo</text><rect fill="url(#g9xbcy1695nr61)" height="46.4417" rx="4.1667" ry="4.1667" style="stroke:#EC7211;stroke-width:0.5208333333333334;" width="301.0417" x="197.3958" y="2162.6536"/><text fill="#FFFFFF" font-family="Verdana" font-size="12.5" lengthAdjust="spacing" textLength="269.7917" x="213.0208" y="2190.8457">VkPipelineInputAssemblyStateCreateInfo</text><rect fill="url(#g9xbcy1695nr61)" height="46.4417" rx="4.1667" ry="4.1667" style="stroke:#EC7211;stroke-width:0.5208333333333334;" width="287.5" x="204.1667" y="2229.9286"/><text fill="#FFFFFF" font-family="Verdana" font-size="12.5" lengthAdjust="spacing" textLength="256.25" x="219.7917" y="2258.1207">(dynamic optional)VkViewport viewport</text><rect fill="url(#g9xbcy1695nr61)" height="46.4417" rx="4.1667" ry="4.1667" style="stroke:#EC7211;stroke-width:0.5208333333333334;" width="262.5" x="216.6667" y="2297.2036"/><text fill="#FFFFFF" font-family="Verdana" font-size="12.5" lengthAdjust="spacing" textLength="231.25" x="232.2917" y="2325.3957">(dynamic optional)VkRect2D scissor</text><rect fill="url(#g9xbcy1695nr61)" height="46.4417" rx="4.1667" ry="4.1667" style="stroke:#EC7211;stroke-width:0.5208333333333334;" width="262.5" x="216.6667" y="2364.4786"/><text fill="#FFFFFF" font-family="Verdana" font-size="12.5" lengthAdjust="spacing" textLength="231.25" x="232.2917" y="2392.6707">VkPipelineViewportStateCreateInfo</text><rect fill="url(#g9xbcy1695nr61)" height="46.4417" rx="4.1667" ry="4.1667" style="stroke:#EC7211;stroke-width:0.5208333333333334;" width="290.625" x="202.6042" y="2431.7535"/><text fill="#FFFFFF" font-family="Verdana" font-size="12.5" lengthAdjust="spacing" textLength="259.375" x="218.2292" y="2459.9457">VkPipelineRasterizationStateCreateInfo</text><rect fill="url(#g9xbcy1695nr61)" height="46.4417" rx="4.1667" ry="4.1667" style="stroke:#EC7211;stroke-width:0.5208333333333334;" width="281.25" x="207.2917" y="2499.0285"/><text fill="#FFFFFF" font-family="Verdana" font-size="12.5" lengthAdjust="spacing" textLength="250" x="222.9167" y="2527.2207">VkPipelineMultisampleStateCreateInfo</text><rect fill="url(#g9xbcy1695nr61)" height="46.4417" rx="4.1667" ry="4.1667" style="stroke:#EC7211;stroke-width:0.5208333333333334;" width="279.1667" x="208.3333" y="2566.3035"/><text fill="#FFFFFF" font-family="Verdana" font-size="12.5" lengthAdjust="spacing" textLength="247.9167" x="223.9583" y="2594.4956">VkPipelineColorBlendAttachmentState</text><rect fill="url(#g9xbcy1695nr61)" height="46.4417" rx="4.1667" ry="4.1667" style="stroke:#EC7211;stroke-width:0.5208333333333334;" width="275" x="210.4167" y="2633.5785"/><text fill="#FFFFFF" font-family="Verdana" font-size="12.5" lengthAdjust="spacing" textLength="243.75" x="226.0417" y="2661.7706">VkPipelineColorBlendStateCreateInfo</text><rect fill="url(#g9xbcy1695nr61)" height="46.4417" rx="4.1667" ry="4.1667" style="stroke:#EC7211;stroke-width:0.5208333333333334;" width="286.4583" x="204.6875" y="2700.8535"/><text fill="#FFFFFF" font-family="Verdana" font-size="12.5" lengthAdjust="spacing" textLength="255.2083" x="220.3125" y="2729.0456">VkPipelineDepthStencilStateCreateInfo</text><rect fill="url(#g9xbcy1695nr61)" height="46.4417" rx="4.1667" ry="4.1667" style="stroke:#EC7211;stroke-width:0.5208333333333334;" width="136.4583" x="279.6875" y="2768.1285"/><text fill="#FFFFFF" font-family="Verdana" font-size="12.5" lengthAdjust="spacing" textLength="105.2083" x="295.3125" y="2796.3206">VkDynamicState</text><rect fill="url(#g9xbcy1695nr61)" height="46.4417" rx="4.1667" ry="4.1667" style="stroke:#EC7211;stroke-width:0.5208333333333334;" width="258.3333" x="218.75" y="2835.4034"/><text fill="#FFFFFF" font-family="Verdana" font-size="12.5" lengthAdjust="spacing" textLength="227.0833" x="234.375" y="2863.5956">VkPipelineDynamicStateCreateInfo</text><rect fill="url(#g9xbcy1695nr61)" height="46.4417" rx="4.1667" ry="4.1667" style="stroke:#EC7211;stroke-width:0.5208333333333334;" width="142.7083" x="276.5625" y="2902.6784"/><text fill="#FFFFFF" font-family="Verdana" font-size="12.5" lengthAdjust="spacing" textLength="111.4583" x="292.1875" y="2930.8706">VkPipelineLayout</text><rect fill="url(#g9xbcy1695nr61)" height="46.4417" rx="4.1667" ry="4.1667" style="stroke:#EC7211;stroke-width:0.5208333333333334;" width="125" x="285.4167" y="2969.9534"/><text fill="#FFFFFF" font-family="Verdana" font-size="12.5" lengthAdjust="spacing" textLength="93.75" x="301.0417" y="2998.1455">VkRenderPass</text><rect fill="url(#g9xbcy1695nr61)" height="46.4417" rx="4.1667" ry="4.1667" style="stroke:#EC7211;stroke-width:0.5208333333333334;" width="145.8333" x="275" y="3037.2284"/><text fill="#FFFFFF" font-family="Verdana" font-size="12.5" lengthAdjust="spacing" textLength="114.5833" x="290.625" y="3065.4205">uint32_t subpass</text><rect fill="none" height="172.6583" rx="4.1667" ry="4.1667" style="stroke:#4E5D6C;stroke-width:1.5625;" width="150" x="272.9167" y="3119.0867"/><path d="M344.7917,3119.0867 L344.7917,3137.4034 L334.375,3147.82 L272.9167,3147.82 " fill="none" style="stroke:#4E5D6C;stroke-width:1.5625;"/><text fill="#EC7211" font-family="Verdana" font-size="12.5" lengthAdjust="spacing" textLength="51.0417" x="281.25" y="3137.9038">Camera</text><rect fill="url(#g9xbcy1695nr61)" height="46.4417" rx="4.1667" ry="4.1667" style="stroke:#EC7211;stroke-width:0.5208333333333334;" width="94.7917" x="300.5208" y="3165.5284"/><text fill="#FFFFFF" font-family="Verdana" font-size="12.5" lengthAdjust="spacing" textLength="63.5417" x="316.1458" y="3193.7205">SetView()</text><rect fill="url(#g9xbcy1695nr61)" height="46.4417" rx="4.1667" ry="4.1667" style="stroke:#EC7211;stroke-width:0.5208333333333334;" width="129.1667" x="283.3333" y="3232.8033"/><text fill="#FFFFFF" font-family="Verdana" font-size="12.5" lengthAdjust="spacing" textLength="97.9167" x="298.9583" y="3260.9955">SetProjection()</text><rect fill="none" height="105.3833" rx="4.1667" ry="4.1667" style="stroke:#4E5D6C;stroke-width:1.5625;" width="194.7917" x="250.5208" y="3302.1617"/><path d="M398.4375,3302.1617 L398.4375,3320.4783 L388.0208,3330.895 L250.5208,3330.895 " fill="none" style="stroke:#4E5D6C;stroke-width:1.5625;"/><text fill="#EC7211" font-family="Verdana" font-size="12.5" lengthAdjust="spacing" textLength="127.0833" x="258.8542" y="3320.9788">KeyboardController</text><rect fill="url(#g9xbcy1695nr61)" height="46.4417" rx="4.1667" ry="4.1667" style="stroke:#EC7211;stroke-width:0.5208333333333334;" width="173.9583" x="260.9375" y="3348.6033"/><text fill="#FFFFFF" font-family="Verdana" font-size="12.5" lengthAdjust="spacing" textLength="142.7083" x="276.5625" y="3376.7955">void MoveInPlaneXZ()</text><rect fill="none" height="799.5544" rx="4.1667" ry="4.1667" style="stroke:#4E5D6C;stroke-width:1.5625;" width="630.2083" x="32.2917" y="3417.9616"/><path d="M121.875,3417.9616 L121.875,3436.2783 L111.4583,3446.6949 L32.2917,3446.6949 " fill="none" style="stroke:#4E5D6C;stroke-width:1.5625;"/><text fill="#EC7211" font-family="Verdana" font-size="12.5" lengthAdjust="spacing" textLength="68.75" x="40.625" y="3436.7788">WhileLoop</text><rect fill="url(#g9xbcy1695nr61)" height="46.4417" rx="4.1667" ry="4.1667" style="stroke:#EC7211;stroke-width:0.5208333333333334;" width="136.4583" x="279.6875" y="3530.1829"/><text fill="#FFFFFF" font-family="Verdana" font-size="12.5" lengthAdjust="spacing" textLength="105.2083" x="295.3125" y="3558.375">glfwPollEvents()</text><rect fill="url(#g9xbcy1695nr61)" height="46.4417" rx="4.1667" ry="4.1667" style="stroke:#EC7211;stroke-width:0.5208333333333334;" width="570.8333" x="62.5" y="3597.4579"/><text fill="#FFFFFF" font-family="Verdana" font-size="12.5" lengthAdjust="spacing" textLength="539.5833" x="78.125" y="3625.65">controller.MoveInPlaneXZ(m_Window.GetWindowHandle(),frameTime, viewObject)</text><rect fill="url(#g9xbcy1695nr61)" height="46.4417" rx="4.1667" ry="4.1667" style="stroke:#EC7211;stroke-width:0.5208333333333334;" width="170.8333" x="262.5" y="3664.7329"/><text fill="#FFFFFF" font-family="Verdana" font-size="12.5" lengthAdjust="spacing" textLength="139.5833" x="278.125" y="3692.925">camera.SetViewMat()</text><rect fill="url(#g9xbcy1695nr61)" height="46.4417" rx="4.1667" ry="4.1667" style="stroke:#EC7211;stroke-width:0.5208333333333334;" width="205.2083" x="245.3125" y="3732.0079"/><text fill="#FFFFFF" font-family="Verdana" font-size="12.5" lengthAdjust="spacing" textLength="173.9583" x="260.9375" y="3760.2">camera.SetProjectionMat()</text><rect fill="url(#g9xbcy1695nr61)" height="46.4417" rx="4.1667" ry="4.1667" style="stroke:#EC7211;stroke-width:0.5208333333333334;" width="203.125" x="246.3542" y="3799.2828"/><text fill="#FFFFFF" font-family="Verdana" font-size="12.5" lengthAdjust="spacing" textLength="171.875" x="261.9792" y="3827.475">m_Renderer.BeginFrame()</text><rect fill="url(#g9xbcy1695nr61)" height="46.4417" rx="4.1667" ry="4.1667" style="stroke:#EC7211;stroke-width:0.5208333333333334;" width="240.625" x="227.6042" y="3866.5578"/><text fill="#FFFFFF" font-family="Verdana" font-size="12.5" lengthAdjust="spacing" textLength="209.375" x="243.2292" y="3894.75">m_Renderer.BeginRenderPass()</text><rect fill="url(#g9xbcy1695nr61)" height="46.4417" rx="4.1667" ry="4.1667" style="stroke:#EC7211;stroke-width:0.5208333333333334;" width="275" x="210.4167" y="3933.8328"/><text fill="#FFFFFF" font-family="Verdana" font-size="12.5" lengthAdjust="spacing" textLength="243.75" x="226.0417" y="3962.0249">RenderSystem.RenderGameObjects()</text><rect fill="url(#g9xbcy1695nr61)" height="46.4417" rx="4.1667" ry="4.1667" style="stroke:#EC7211;stroke-width:0.5208333333333334;" width="229.1667" x="233.3333" y="4001.1078"/><text fill="#FFFFFF" font-family="Verdana" font-size="12.5" lengthAdjust="spacing" textLength="197.9167" x="248.9583" y="4029.2999">m_Renderer.EndRenderPass()</text><rect fill="url(#g9xbcy1695nr61)" height="46.4417" rx="4.1667" ry="4.1667" style="stroke:#EC7211;stroke-width:0.5208333333333334;" width="191.6667" x="252.0833" y="4068.3828"/><text fill="#FFFFFF" font-family="Verdana" font-size="12.5" lengthAdjust="spacing" textLength="160.4167" x="267.7083" y="4096.5749">m_Renderer.EndFrame()</text><polygon fill="#EEEEEE" points="255.7292,3464.4033,440.1042,3464.4033,452.6042,3477.2074,440.1042,3490.0116,255.7292,3490.0116,243.2292,3477.2074,255.7292,3464.4033" style="stroke:#BEBEBE;stroke-width:0.5208333333333334;"/><text fill="#FF69B4" font-family="Verdana" font-size="12.5" lengthAdjust="spacing" textLength="27.0833" x="357.2917" y="3507.7871">true</text><text fill="#4E5D6C" font-family="Verdana" font-size="12.5" lengthAdjust="spacing" textLength="173.9583" x="260.9375" y="3482.1788">!m_Window.ShouldClose()</text><text fill="#FF69B4" font-family="Verdana" font-size="12.5" lengthAdjust="spacing" textLength="31.25" x="206.7708" y="3469.3746">false</text><rect fill="url(#g9xbcy1695nr61)" height="46.4417" rx="4.1667" ry="4.1667" style="stroke:#EC7211;stroke-width:0.5208333333333334;" width="154.1667" x="270.8333" y="4158.5744"/><text fill="#FFFFFF" font-family="Verdana" font-size="12.5" lengthAdjust="spacing" textLength="122.9167" x="286.4583" y="4186.7666">vkDeviceWaitIdle()</text><rect fill="url(#g9xbcy1695nr62)" height="105.3833" rx="4.1667" ry="4.1667" style="stroke:#EC7211;stroke-width:1.5625;" width="96.875" x="299.4792" y="4240.4327"/><path d="M354.6875,4240.4327 L354.6875,4258.7494 L344.2708,4269.1661 L299.4792,4269.1661 " fill="none" style="stroke:#EC7211;stroke-width:1.5625;"/><text fill="#EC7211" font-family="Verdana" font-size="12.5" lengthAdjust="spacing" textLength="34.375" x="307.8125" y="4259.2499">clean</text><rect fill="url(#g9xbcy1695nr61)" height="46.4417" rx="4.1667" ry="4.1667" style="stroke:#EC7211;stroke-width:0.5208333333333334;" width="76.0417" x="309.8958" y="4286.8744"/><text fill="#FFFFFF" font-family="Verdana" font-size="12.5" lengthAdjust="spacing" textLength="44.7917" x="325.5208" y="4315.0665">clean()</text><rect fill="url(#g9xbcy1695nr61)" height="46.4417" rx="4.1667" ry="4.1667" style="stroke:#EC7211;stroke-width:0.5208333333333334;" width="65.625" x="315.1042" y="4379.1494"/><text fill="#FFFFFF" font-family="Verdana" font-size="12.5" lengthAdjust="spacing" textLength="34.375" x="330.7292" y="4407.3415">exit()</text><ellipse cx="347.9167" cy="4457.8827" fill="none" rx="11.4583" ry="11.4583" style="stroke:#222222;stroke-width:1.0416666666666667;"/><ellipse cx="347.9167" cy="4457.8827" fill="#222222" rx="6.25" ry="6.25" style="stroke:#111111;stroke-width:1.0416666666666667;"/><line style="stroke:#EC7211;stroke-width:3.125;" x1="347.9167" x2="347.9167" y1="173.7" y2="194.5333"/><polygon fill="#EC7211" points="343.75,184.1166,347.9167,194.5333,352.0833,184.1166,347.9167,188.2833" style="stroke:#EC7211;stroke-width:1.0416666666666667;"/><line style="stroke:#EC7211;stroke-width:3.125;" x1="347.9167" x2="347.9167" y1="240.9749" y2="261.8083"/><polygon fill="#EC7211" points="343.75,251.3916,347.9167,261.8083,352.0833,251.3916,347.9167,255.5583" style="stroke:#EC7211;stroke-width:1.0416666666666667;"/><line style="stroke:#EC7211;stroke-width:3.125;" x1="347.9167" x2="347.9167" y1="308.2499" y2="329.0833"/><polygon fill="#EC7211" points="343.75,318.6666,347.9167,329.0833,352.0833,318.6666,347.9167,322.8333" style="stroke:#EC7211;stroke-width:1.0416666666666667;"/><line style="stroke:#EC7211;stroke-width:3.125;" x1="347.9167" x2="347.9167" y1="375.5249" y2="396.3582"/><polygon fill="#EC7211" points="343.75,385.9416,347.9167,396.3582,352.0833,385.9416,347.9167,390.1082" style="stroke:#EC7211;stroke-width:1.0416666666666667;"/><line style="stroke:#EC7211;stroke-width:3.125;" x1="347.9167" x2="347.9167" y1="605.0415" y2="636.5957"/><polygon fill="#EC7211" points="343.75,626.179,347.9167,636.5957,352.0833,626.179,347.9167,630.3457" style="stroke:#EC7211;stroke-width:1.0416666666666667;"/><line style="stroke:#EC7211;stroke-width:3.125;" x1="472.9167" x2="485.4167" y1="592.2373" y2="592.2373"/><polygon fill="#EC7211" points="481.25,654.4561,485.4167,664.8727,489.5833,654.4561,485.4167,658.6227" style="stroke:#EC7211;stroke-width:3.125;"/><line style="stroke:#EC7211;stroke-width:3.125;" x1="485.4167" x2="485.4167" y1="592.2373" y2="716.3706"/><line style="stroke:#EC7211;stroke-width:3.125;" x1="485.4167" x2="360.4167" y1="716.3706" y2="716.3706"/><polygon fill="#EC7211" points="370.8333,712.204,360.4167,716.3706,370.8333,720.5373,366.6667,716.3706" style="stroke:#EC7211;stroke-width:1.0416666666666667;"/><line style="stroke:#EC7211;stroke-width:3.125;" x1="347.9167" x2="347.9167" y1="683.0373" y2="703.8706"/><polygon fill="#EC7211" points="343.75,693.454,347.9167,703.8706,352.0833,693.454,347.9167,697.6206" style="stroke:#EC7211;stroke-width:1.0416666666666667;"/><line style="stroke:#EC7211;stroke-width:3.125;" x1="347.9167" x2="347.9167" y1="558.5999" y2="579.4332"/><polygon fill="#EC7211" points="343.75,569.0165,347.9167,579.4332,352.0833,569.0165,347.9167,573.1832" style="stroke:#EC7211;stroke-width:1.0416666666666667;"/><line style="stroke:#EC7211;stroke-width:3.125;" x1="347.9167" x2="347.9167" y1="728.8706" y2="749.704"/><polygon fill="#EC7211" points="343.75,739.2873,347.9167,749.704,352.0833,739.2873,347.9167,743.454" style="stroke:#EC7211;stroke-width:1.0416666666666667;"/><line style="stroke:#EC7211;stroke-width:3.125;" x1="347.9167" x2="347.9167" y1="796.1456" y2="816.979"/><polygon fill="#EC7211" points="343.75,806.5623,347.9167,816.979,352.0833,806.5623,347.9167,810.729" style="stroke:#EC7211;stroke-width:1.0416666666666667;"/><line style="stroke:#EC7211;stroke-width:3.125;" x1="347.9167" x2="347.9167" y1="863.4206" y2="884.2539"/><polygon fill="#EC7211" points="343.75,873.8373,347.9167,884.2539,352.0833,873.8373,347.9167,878.0039" style="stroke:#EC7211;stroke-width:1.0416666666666667;"/><line style="stroke:#EC7211;stroke-width:3.125;" x1="347.9167" x2="347.9167" y1="930.6956" y2="951.5289"/><polygon fill="#EC7211" points="343.75,941.1123,347.9167,951.5289,352.0833,941.1123,347.9167,945.2789" style="stroke:#EC7211;stroke-width:1.0416666666666667;"/><line style="stroke:#EC7211;stroke-width:3.125;" x1="347.9167" x2="347.9167" y1="442.7999" y2="512.1582"/><polygon fill="#EC7211" points="343.75,501.7415,347.9167,512.1582,352.0833,501.7415,347.9167,505.9082" style="stroke:#EC7211;stroke-width:1.0416666666666667;"/><line style="stroke:#EC7211;stroke-width:3.125;" x1="347.9167" x2="347.9167" y1="1217.0705" y2="1237.9038"/><polygon fill="#EC7211" points="343.75,1227.4872,347.9167,1237.9038,352.0833,1227.4872,347.9167,1231.6538" style="stroke:#EC7211;stroke-width:1.0416666666666667;"/><line style="stroke:#EC7211;stroke-width:3.125;" x1="347.9167" x2="347.9167" y1="1284.3455" y2="1305.1788"/><polygon fill="#EC7211" points="343.75,1294.7622,347.9167,1305.1788,352.0833,1294.7622,347.9167,1298.9288" style="stroke:#EC7211;stroke-width:1.0416666666666667;"/><line style="stroke:#EC7211;stroke-width:3.125;" x1="347.9167" x2="347.9167" y1="1351.6205" y2="1372.4538"/><polygon fill="#EC7211" points="343.75,1362.0372,347.9167,1372.4538,352.0833,1362.0372,347.9167,1366.2038" style="stroke:#EC7211;stroke-width:1.0416666666666667;"/><line style="stroke:#EC7211;stroke-width:3.125;" x1="347.9167" x2="347.9167" y1="1418.8955" y2="1439.7288"/><polygon fill="#EC7211" points="343.75,1429.3121,347.9167,1439.7288,352.0833,1429.3121,347.9167,1433.4788" style="stroke:#EC7211;stroke-width:1.0416666666666667;"/><line style="stroke:#EC7211;stroke-width:3.125;" x1="347.9167" x2="347.9167" y1="1486.1705" y2="1507.0038"/><polygon fill="#EC7211" points="343.75,1496.5871,347.9167,1507.0038,352.0833,1496.5871,347.9167,1500.7538" style="stroke:#EC7211;stroke-width:1.0416666666666667;"/><line style="stroke:#EC7211;stroke-width:3.125;" x1="347.9167" x2="347.9167" y1="1113.7705" y2="1170.6289"/><polygon fill="#EC7211" points="343.75,1160.2122,347.9167,1170.6289,352.0833,1160.2122,347.9167,1164.3789" style="stroke:#EC7211;stroke-width:1.0416666666666667;"/><line style="stroke:#EC7211;stroke-width:3.125;" x1="347.9167" x2="347.9167" y1="1553.4454" y2="1586.7788"/><polygon fill="#EC7211" points="343.75,1576.3621,347.9167,1586.7788,352.0833,1576.3621,347.9167,1580.5288" style="stroke:#EC7211;stroke-width:1.0416666666666667;"/><line style="stroke:#EC7211;stroke-width:3.125;" x1="347.9167" x2="347.9167" y1="997.9706" y2="1067.3289"/><polygon fill="#EC7211" points="343.75,1056.9122,347.9167,1067.3289,352.0833,1056.9122,347.9167,1061.0789" style="stroke:#EC7211;stroke-width:1.0416666666666667;"/><line style="stroke:#EC7211;stroke-width:3.125;" x1="347.9167" x2="347.9167" y1="1633.2204" y2="1702.5787"/><polygon fill="#EC7211" points="343.75,1692.1621,347.9167,1702.5787,352.0833,1692.1621,347.9167,1696.3287" style="stroke:#EC7211;stroke-width:1.0416666666666667;"/><line style="stroke:#EC7211;stroke-width:3.125;" x1="347.9167" x2="347.9167" y1="2007.2703" y2="2028.1036"/><polygon fill="#EC7211" points="343.75,2017.687,347.9167,2028.1036,352.0833,2017.687,347.9167,2021.8536" style="stroke:#EC7211;stroke-width:1.0416666666666667;"/><line style="stroke:#EC7211;stroke-width:3.125;" x1="347.9167" x2="347.9167" y1="2074.5453" y2="2095.3786"/><polygon fill="#EC7211" points="343.75,2084.962,347.9167,2095.3786,352.0833,2084.962,347.9167,2089.1286" style="stroke:#EC7211;stroke-width:1.0416666666666667;"/><line style="stroke:#EC7211;stroke-width:3.125;" x1="347.9167" x2="347.9167" y1="2141.8203" y2="2162.6536"/><polygon fill="#EC7211" points="343.75,2152.2369,347.9167,2162.6536,352.0833,2152.2369,347.9167,2156.4036" style="stroke:#EC7211;stroke-width:1.0416666666666667;"/><line style="stroke:#EC7211;stroke-width:3.125;" x1="347.9167" x2="347.9167" y1="2209.0953" y2="2229.9286"/><polygon fill="#EC7211" points="343.75,2219.5119,347.9167,2229.9286,352.0833,2219.5119,347.9167,2223.6786" style="stroke:#EC7211;stroke-width:1.0416666666666667;"/><line style="stroke:#EC7211;stroke-width:3.125;" x1="347.9167" x2="347.9167" y1="2276.3702" y2="2297.2036"/><polygon fill="#EC7211" points="343.75,2286.7869,347.9167,2297.2036,352.0833,2286.7869,347.9167,2290.9536" style="stroke:#EC7211;stroke-width:1.0416666666666667;"/><line style="stroke:#EC7211;stroke-width:3.125;" x1="347.9167" x2="347.9167" y1="2343.6452" y2="2364.4786"/><polygon fill="#EC7211" points="343.75,2354.0619,347.9167,2364.4786,352.0833,2354.0619,347.9167,2358.2286" style="stroke:#EC7211;stroke-width:1.0416666666666667;"/><line style="stroke:#EC7211;stroke-width:3.125;" x1="347.9167" x2="347.9167" y1="2410.9202" y2="2431.7535"/><polygon fill="#EC7211" points="343.75,2421.3369,347.9167,2431.7535,352.0833,2421.3369,347.9167,2425.5035" style="stroke:#EC7211;stroke-width:1.0416666666666667;"/><line style="stroke:#EC7211;stroke-width:3.125;" x1="347.9167" x2="347.9167" y1="2478.1952" y2="2499.0285"/><polygon fill="#EC7211" points="343.75,2488.6119,347.9167,2499.0285,352.0833,2488.6119,347.9167,2492.7785" style="stroke:#EC7211;stroke-width:1.0416666666666667;"/><line style="stroke:#EC7211;stroke-width:3.125;" x1="347.9167" x2="347.9167" y1="2545.4702" y2="2566.3035"/><polygon fill="#EC7211" points="343.75,2555.8868,347.9167,2566.3035,352.0833,2555.8868,347.9167,2560.0535" style="stroke:#EC7211;stroke-width:1.0416666666666667;"/><line style="stroke:#EC7211;stroke-width:3.125;" x1="347.9167" x2="347.9167" y1="2612.7452" y2="2633.5785"/><polygon fill="#EC7211" points="343.75,2623.1618,347.9167,2633.5785,352.0833,2623.1618,347.9167,2627.3285" style="stroke:#EC7211;stroke-width:1.0416666666666667;"/><line style="stroke:#EC7211;stroke-width:3.125;" x1="347.9167" x2="347.9167" y1="2680.0201" y2="2700.8535"/><polygon fill="#EC7211" points="343.75,2690.4368,347.9167,2700.8535,352.0833,2690.4368,347.9167,2694.6035" style="stroke:#EC7211;stroke-width:1.0416666666666667;"/><line style="stroke:#EC7211;stroke-width:3.125;" x1="347.9167" x2="347.9167" y1="2747.2951" y2="2768.1285"/><polygon fill="#EC7211" points="343.75,2757.7118,347.9167,2768.1285,352.0833,2757.7118,347.9167,2761.8785" style="stroke:#EC7211;stroke-width:1.0416666666666667;"/><line style="stroke:#EC7211;stroke-width:3.125;" x1="347.9167" x2="347.9167" y1="2814.5701" y2="2835.4034"/><polygon fill="#EC7211" points="343.75,2824.9868,347.9167,2835.4034,352.0833,2824.9868,347.9167,2829.1534" style="stroke:#EC7211;stroke-width:1.0416666666666667;"/><line style="stroke:#EC7211;stroke-width:3.125;" x1="347.9167" x2="347.9167" y1="2881.8451" y2="2902.6784"/><polygon fill="#EC7211" points="343.75,2892.2618,347.9167,2902.6784,352.0833,2892.2618,347.9167,2896.4284" style="stroke:#EC7211;stroke-width:1.0416666666666667;"/><line style="stroke:#EC7211;stroke-width:3.125;" x1="347.9167" x2="347.9167" y1="2949.1201" y2="2969.9534"/><polygon fill="#EC7211" points="343.75,2959.5367,347.9167,2969.9534,352.0833,2959.5367,347.9167,2963.7034" style="stroke:#EC7211;stroke-width:1.0416666666666667;"/><line style="stroke:#EC7211;stroke-width:3.125;" x1="347.9167" x2="347.9167" y1="3016.3951" y2="3037.2284"/><polygon fill="#EC7211" points="343.75,3026.8117,347.9167,3037.2284,352.0833,3026.8117,347.9167,3030.9784" style="stroke:#EC7211;stroke-width:1.0416666666666667;"/><line style="stroke:#EC7211;stroke-width:3.125;" x1="347.9167" x2="347.9167" y1="1903.9703" y2="1960.8287"/><polygon fill="#EC7211" points="343.75,1950.412,347.9167,1960.8287,352.0833,1950.412,347.9167,1954.5787" style="stroke:#EC7211;stroke-width:1.0416666666666667;"/><line style="stroke:#EC7211;stroke-width:3.125;" x1="347.9167" x2="347.9167" y1="3211.97" y2="3232.8033"/><polygon fill="#EC7211" points="343.75,3222.3867,347.9167,3232.8033,352.0833,3222.3867,347.9167,3226.5533" style="stroke:#EC7211;stroke-width:1.0416666666666667;"/><line style="stroke:#EC7211;stroke-width:3.125;" x1="347.9167" x2="347.9167" y1="3083.67" y2="3165.5284"/><polygon fill="#EC7211" points="343.75,3155.1117,347.9167,3165.5284,352.0833,3155.1117,347.9167,3159.2784" style="stroke:#EC7211;stroke-width:1.0416666666666667;"/><line style="stroke:#EC7211;stroke-width:3.125;" x1="347.9167" x2="347.9167" y1="3279.245" y2="3348.6033"/><polygon fill="#EC7211" points="343.75,3338.1866,347.9167,3348.6033,352.0833,3338.1866,347.9167,3342.3533" style="stroke:#EC7211;stroke-width:1.0416666666666667;"/><line style="stroke:#EC7211;stroke-width:3.125;" x1="347.9167" x2="347.9167" y1="3576.6246" y2="3597.4579"/><polygon fill="#EC7211" points="343.75,3587.0412,347.9167,3597.4579,352.0833,3587.0412,347.9167,3591.2079" style="stroke:#EC7211;stroke-width:1.0416666666666667;"/><line style="stroke:#EC7211;stroke-width:3.125;" x1="347.9167" x2="347.9167" y1="3643.8995" y2="3664.7329"/><polygon fill="#EC7211" points="343.75,3654.3162,347.9167,3664.7329,352.0833,3654.3162,347.9167,3658.4829" style="stroke:#EC7211;stroke-width:1.0416666666666667;"/><line style="stroke:#EC7211;stroke-width:3.125;" x1="347.9167" x2="347.9167" y1="3711.1745" y2="3732.0079"/><polygon fill="#EC7211" points="343.75,3721.5912,347.9167,3732.0079,352.0833,3721.5912,347.9167,3725.7579" style="stroke:#EC7211;stroke-width:1.0416666666666667;"/><line style="stroke:#EC7211;stroke-width:3.125;" x1="347.9167" x2="347.9167" y1="3778.4495" y2="3799.2828"/><polygon fill="#EC7211" points="343.75,3788.8662,347.9167,3799.2828,352.0833,3788.8662,347.9167,3793.0328" style="stroke:#EC7211;stroke-width:1.0416666666666667;"/><line style="stroke:#EC7211;stroke-width:3.125;" x1="347.9167" x2="347.9167" y1="3845.7245" y2="3866.5578"/><polygon fill="#EC7211" points="343.75,3856.1412,347.9167,3866.5578,352.0833,3856.1412,347.9167,3860.3078" style="stroke:#EC7211;stroke-width:1.0416666666666667;"/><line style="stroke:#EC7211;stroke-width:3.125;" x1="347.9167" x2="347.9167" y1="3912.9995" y2="3933.8328"/><polygon fill="#EC7211" points="343.75,3923.4161,347.9167,3933.8328,352.0833,3923.4161,347.9167,3927.5828" style="stroke:#EC7211;stroke-width:1.0416666666666667;"/><line style="stroke:#EC7211;stroke-width:3.125;" x1="347.9167" x2="347.9167" y1="3980.2745" y2="4001.1078"/><polygon fill="#EC7211" points="343.75,3990.6911,347.9167,4001.1078,352.0833,3990.6911,347.9167,3994.8578" style="stroke:#EC7211;stroke-width:1.0416666666666667;"/><line style="stroke:#EC7211;stroke-width:3.125;" x1="347.9167" x2="347.9167" y1="4047.5494" y2="4068.3828"/><polygon fill="#EC7211" points="343.75,4057.9661,347.9167,4068.3828,352.0833,4057.9661,347.9167,4062.1328" style="stroke:#EC7211;stroke-width:1.0416666666666667;"/><line style="stroke:#EC7211;stroke-width:3.125;" x1="347.9167" x2="347.9167" y1="3490.0116" y2="3530.1829"/><polygon fill="#EC7211" points="343.75,3519.7662,347.9167,3530.1829,352.0833,3519.7662,347.9167,3523.9329" style="stroke:#EC7211;stroke-width:1.0416666666666667;"/><line style="stroke:#EC7211;stroke-width:3.125;" x1="347.9167" x2="347.9167" y1="4114.8244" y2="4125.2411"/><line style="stroke:#EC7211;stroke-width:3.125;" x1="347.9167" x2="645.8333" y1="4125.2411" y2="4125.2411"/><polygon fill="#EC7211" points="641.6667,3807.4641,645.8333,3797.0474,650,3807.4641,645.8333,3803.2974" style="stroke:#EC7211;stroke-width:3.125;"/><line style="stroke:#EC7211;stroke-width:3.125;" x1="645.8333" x2="645.8333" y1="3477.2074" y2="4125.2411"/><line style="stroke:#EC7211;stroke-width:3.125;" x1="645.8333" x2="452.6042" y1="3477.2074" y2="3477.2074"/><polygon fill="#EC7211" points="463.0208,3473.0408,452.6042,3477.2074,463.0208,3481.3741,458.8542,3477.2074" style="stroke:#EC7211;stroke-width:1.0416666666666667;"/><line style="stroke:#EC7211;stroke-width:3.125;" x1="243.2292" x2="50" y1="3477.2074" y2="3477.2074"/><polygon fill="#EC7211" points="45.8333,3798.0891,50,3808.5058,54.1667,3798.0891,50,3802.2558" style="stroke:#EC7211;stroke-width:3.125;"/><line style="stroke:#EC7211;stroke-width:3.125;" x1="50" x2="50" y1="3477.2074" y2="4142.9494"/><line style="stroke:#EC7211;stroke-width:3.125;" x1="50" x2="347.9167" y1="4142.9494" y2="4142.9494"/><line style="stroke:#EC7211;stroke-width:3.125;" x1="347.9167" x2="347.9167" y1="4142.9494" y2="4158.5744"/><polygon fill="#EC7211" points="343.75,4148.1578,347.9167,4158.5744,352.0833,4148.1578,347.9167,4152.3244" style="stroke:#EC7211;stroke-width:1.0416666666666667;"/><line style="stroke:#EC7211;stroke-width:3.125;" x1="347.9167" x2="347.9167" y1="3395.045" y2="3464.4033"/><polygon fill="#EC7211" points="343.75,3453.9866,347.9167,3464.4033,352.0833,3453.9866,347.9167,3458.1533" style="stroke:#EC7211;stroke-width:1.0416666666666667;"/><line style="stroke:#EC7211;stroke-width:3.125;" x1="347.9167" x2="347.9167" y1="1749.0204" y2="1857.5287"/><polygon fill="#EC7211" points="343.75,1847.112,347.9167,1857.5287,352.0833,1847.112,347.9167,1851.2787" style="stroke:#EC7211;stroke-width:1.0416666666666667;"/><line style="stroke:#EC7211;stroke-width:3.125;" x1="347.9167" x2="347.9167" y1="4205.0161" y2="4286.8744"/><polygon fill="#EC7211" points="343.75,4276.4577,347.9167,4286.8744,352.0833,4276.4577,347.9167,4280.6244" style="stroke:#EC7211;stroke-width:1.0416666666666667;"/><line style="stroke:#EC7211;stroke-width:3.125;" x1="347.9167" x2="347.9167" y1="31.25" y2="127.2583"/><polygon fill="#EC7211" points="343.75,116.8416,347.9167,127.2583,352.0833,116.8416,347.9167,121.0083" style="stroke:#EC7211;stroke-width:1.0416666666666667;"/><line style="stroke:#EC7211;stroke-width:3.125;" x1="347.9167" x2="347.9167" y1="4333.316" y2="4379.1494"/><polygon fill="#EC7211" points="343.75,4368.7327,347.9167,4379.1494,352.0833,4368.7327,347.9167,4372.8994" style="stroke:#EC7211;stroke-width:1.0416666666666667;"/><line style="stroke:#EC7211;stroke-width:3.125;" x1="347.9167" x2="347.9167" y1="4425.591" y2="4446.4244"/><polygon fill="#EC7211" points="343.75,4436.0077,347.9167,4446.4244,352.0833,4436.0077,347.9167,4440.1744" style="stroke:#EC7211;stroke-width:1.0416666666666667;"/><!--SRC=[bLPjRzem4FxEhqYrBo1jLEg-iQbI2rsBLjIeh7JR5tGu5-BXs97jGEcq_xvB32I1y8OgHE-UEp- -Lr_O26FqO64-AGroYes6iQ1jev7GDxTSIU_3QyGjNZxbUkycIRo_ZOP7dwbMQUAzSXceHIx8Ffsf21TzoMspzQKgTC07BdTLNOrWqG5sb4EqJlDYKFkAx57NWRvfY76IXY7g8N_7BWWn0JPRGr46Zd6PV0_dd67XoX7fImg2P5W-XOTD1-vqpFXEmaJW20GF88lH8onHjpmAfcn-PKeetOcKJRYSNLkTOgiuW7Y-93sYEHsWCKWHhTm5XS6r1ut1TGWaACpf3ZpSPZjCTGXLiXsVivaVBGrd81pjYjePFghfGNrNnJ78m5TA70pYCqbHeoxidv4vQWj8kX5mcTblrCvgezl8otSg6zRe-p5CSSHnOVO072SVp3v03nCRFQDHgMQu3vINr6rUKliWmwLaJvC_o6m5iHMetQYMlDP5jjH-FfNHvIyKGYsyHmN1FN5QdKYTkF6-fLgJ-PT_7_AfKrdoKqxfS6aindMtzdc2WakambUfhMItS7Al8OauCsjm1L8EOGHqs405gS3jAEUmqMpjma67bhA_RjLG7RGOeRRurfT9QidCdcgM6znGXyOJiJnks0oM4cBEF9La0GRH6isoyaoKjjvyzUD4EseUUzNp3EF6A7tuSYlFvzpi6IYfch_dW-iSmq4gB3SG9mBFCUjcm-nMK47TM0iiYb4wlYTQdNDMtjH3Yv9nSOfTpqN_E9qoy4GkhZLg8SLmgb6djE0-NusjPz99iWEfcIir8jT_NPe66ghjI_idAvgTOKPoNwjiSb1L71bapljtN4uKwA2hfDLAYDBypptE5G-yWPfJf7m14d_-FiajFJO4RIQLLBmjCcdp8Xwxbq1x6AbK15sXQ5ssMXutXzTkvQdW4zcxELMXgHqsR7EVTfNzvl3xzOFaWUPuDh8-XjcU-C5Z_9Wtknl1jSxpbBHNMHY0RHv65JdPXut7w_NRliKfb_dAEWcvVqMkTdYn0jhkdvhrik-4EnaSyLy5rz8clKlyLdAtNaL5oStSM-OLkEq7rMLI59pRYeSs8XC8vPtOoGN5HctGNmVVt1kN7inKhFy1]--></g></svg>