<?xml version="1.0" encoding="us-ascii" standalone="no"?><svg xmlns="http://www.w3.org/2000/svg" xmlns:xlink="http://www.w3.org/1999/xlink" contentStyleType="text/css" height="290px" preserveAspectRatio="none" style="width:1152px;height:290px;background:#FFFFFF;" version="1.1" viewBox="0 0 1152 290" width="1152px" zoomAndPan="magnify"><defs/><g><!--class [nested]Builder(SetLayout)--><g id="elem_[nested]Builder(SetLayout)"><rect codeLine="1" fill="#F1F1F1" height="206.4844" id="[nested]Builder(SetLayout)" rx="2.5" ry="2.5" style="stroke:#181818;stroke-width:0.5;" width="512" x="7" y="42.5"/><ellipse cx="174.25" cy="58.5" fill="#ADD1B2" rx="11" ry="11" style="stroke:#181818;stroke-width:1.0;"/><path d="M177.0156,54.375 Q177.1719,54.1563 177.3594,54.0469 Q177.5469,53.9375 177.7656,53.9375 Q178.1406,53.9375 178.375,54.2031 Q178.6094,54.4531 178.6094,55.0625 L178.6094,56.5156 Q178.6094,57.125 178.375,57.3906 Q178.1406,57.6563 177.7656,57.6563 Q177.4219,57.6563 177.2188,57.4531 Q177.0156,57.2656 176.9063,56.75 Q176.8594,56.3906 176.6719,56.2031 Q176.3438,55.8281 175.7344,55.6094 Q175.125,55.3906 174.5,55.3906 Q173.7344,55.3906 173.0938,55.7188 Q172.4688,56.0469 171.9688,56.7969 Q171.4844,57.5469 171.4844,58.5781 L171.4844,59.6719 Q171.4844,60.9063 172.375,61.7344 Q173.2656,62.5469 174.8594,62.5469 Q175.7969,62.5469 176.4531,62.2969 Q176.8438,62.1406 177.2656,61.7031 Q177.5313,61.4375 177.6719,61.3594 Q177.8281,61.2813 178.0313,61.2813 Q178.3594,61.2813 178.6094,61.5469 Q178.875,61.7969 178.875,62.1406 Q178.875,62.4844 178.5313,62.8906 Q178.0313,63.4688 177.2344,63.7969 Q176.1563,64.25 174.8594,64.25 Q173.3438,64.25 172.1406,63.625 Q171.1563,63.125 170.4688,62.0625 Q169.7813,60.9844 169.7813,59.7031 L169.7813,58.5469 Q169.7813,57.2188 170.3906,56.0781 Q171.0156,54.9219 172.1094,54.3125 Q173.2031,53.6875 174.4375,53.6875 Q175.1719,53.6875 175.8125,53.8594 Q176.4688,54.0156 177.0156,54.375 Z " fill="#000000"/><text fill="#000000" font-family="sans-serif" font-size="14" lengthAdjust="spacing" textLength="169" x="194.75" y="64.2285">[nested]Builder(SetLayout)</text><line style="stroke:#181818;stroke-width:0.5;" x1="8" x2="518" y1="74.5" y2="74.5"/><rect fill="none" height="6" style="stroke:#C82930;stroke-width:1.0;" width="6" x="15" y="85.8047"/><text fill="#000000" font-family="sans-serif" font-size="14" lengthAdjust="spacing" textLength="116" x="27" y="93.0332">Device &amp;r_Device;</text><rect fill="none" height="6" style="stroke:#C82930;stroke-width:1.0;" width="6" x="15" y="103.4141"/><text fill="#000000" font-family="sans-serif" font-size="14" lengthAdjust="spacing" textLength="486" x="27" y="110.6426">std::unordered_map&lt;uint32_t, VkDescriptorSetLayoutBinding&gt; m_Bindings{};</text><line style="stroke:#181818;stroke-width:0.5;" x1="8" x2="518" y1="117.7188" y2="117.7188"/><ellipse cx="18" cy="132.0234" fill="#84BE84" rx="3" ry="3" style="stroke:#038048;stroke-width:1.0;"/><text fill="#000000" font-family="sans-serif" font-size="14" lengthAdjust="spacing" textLength="284" x="27" y="136.252">Builder(Device &amp;device) : r_Device{device} {}</text><ellipse cx="18" cy="149.6328" fill="#84BE84" rx="3" ry="3" style="stroke:#038048;stroke-width:1.0;"/><text fill="#000000" font-family="sans-serif" font-size="14" lengthAdjust="spacing" textLength="76" x="27" y="153.8613">~Builder() {}</text><text fill="#000000" font-family="sans-serif" font-size="14" lengthAdjust="spacing" textLength="4" x="27" y="171.4707">&#160;</text><ellipse cx="18" cy="184.8516" fill="#84BE84" rx="3" ry="3" style="stroke:#038048;stroke-width:1.0;"/><text fill="#000000" font-family="sans-serif" font-size="14" lengthAdjust="spacing" textLength="459" x="27" y="189.0801">Builder &amp;AddBinding(uint32_t binding, VkDescriptorType descriptorType,</text><text fill="#000000" font-family="sans-serif" font-size="14" lengthAdjust="spacing" textLength="339" x="27" y="206.6895">VkShaderStageFlags stageFlags, uint32_t count = 1);</text><text fill="#000000" font-family="sans-serif" font-size="14" lengthAdjust="spacing" textLength="4" x="27" y="224.2988">&#160;</text><ellipse cx="18" cy="237.6797" fill="#84BE84" rx="3" ry="3" style="stroke:#038048;stroke-width:1.0;"/><text fill="#000000" font-family="sans-serif" font-size="14" lengthAdjust="spacing" textLength="327" x="27" y="241.9082">std::unique_ptr&lt;DescriptorSetLayout&gt; Build() const;</text></g><!--class DescriptorSetLayout--><g id="elem_DescriptorSetLayout"><rect codeLine="15" fill="#F1F1F1" height="276.9219" id="DescriptorSetLayout" rx="2.5" ry="2.5" style="stroke:#181818;stroke-width:0.5;" width="591" x="554.5" y="7"/><ellipse cx="781.25" cy="23" fill="#ADD1B2" rx="11" ry="11" style="stroke:#181818;stroke-width:1.0;"/><path d="M784.0156,18.875 Q784.1719,18.6563 784.3594,18.5469 Q784.5469,18.4375 784.7656,18.4375 Q785.1406,18.4375 785.375,18.7031 Q785.6094,18.9531 785.6094,19.5625 L785.6094,21.0156 Q785.6094,21.625 785.375,21.8906 Q785.1406,22.1563 784.7656,22.1563 Q784.4219,22.1563 784.2188,21.9531 Q784.0156,21.7656 783.9063,21.25 Q783.8594,20.8906 783.6719,20.7031 Q783.3438,20.3281 782.7344,20.1094 Q782.125,19.8906 781.5,19.8906 Q780.7344,19.8906 780.0938,20.2188 Q779.4688,20.5469 778.9688,21.2969 Q778.4844,22.0469 778.4844,23.0781 L778.4844,24.1719 Q778.4844,25.4063 779.375,26.2344 Q780.2656,27.0469 781.8594,27.0469 Q782.7969,27.0469 783.4531,26.7969 Q783.8438,26.6406 784.2656,26.2031 Q784.5313,25.9375 784.6719,25.8594 Q784.8281,25.7813 785.0313,25.7813 Q785.3594,25.7813 785.6094,26.0469 Q785.875,26.2969 785.875,26.6406 Q785.875,26.9844 785.5313,27.3906 Q785.0313,27.9688 784.2344,28.2969 Q783.1563,28.75 781.8594,28.75 Q780.3438,28.75 779.1406,28.125 Q778.1563,27.625 777.4688,26.5625 Q776.7813,25.4844 776.7813,24.2031 L776.7813,23.0469 Q776.7813,21.7188 777.3906,20.5781 Q778.0156,19.4219 779.1094,18.8125 Q780.2031,18.1875 781.4375,18.1875 Q782.1719,18.1875 782.8125,18.3594 Q783.4688,18.5156 784.0156,18.875 Z " fill="#000000"/><text fill="#000000" font-family="sans-serif" font-size="14" lengthAdjust="spacing" textLength="129" x="801.75" y="28.7285">DescriptorSetLayout</text><line style="stroke:#181818;stroke-width:0.5;" x1="555.5" x2="1144.5" y1="39" y2="39"/><rect fill="none" height="6" style="stroke:#C82930;stroke-width:1.0;" width="6" x="562.5" y="50.3047"/><text fill="#000000" font-family="sans-serif" font-size="14" lengthAdjust="spacing" textLength="116" x="574.5" y="57.5332">Device &amp;r_Device;</text><rect fill="none" height="6" style="stroke:#C82930;stroke-width:1.0;" width="6" x="562.5" y="67.9141"/><text fill="#000000" font-family="sans-serif" font-size="14" lengthAdjust="spacing" textLength="301" x="574.5" y="75.1426">VkDescriptorSetLayout m_DescriptorSetLayout;</text><rect fill="none" height="6" style="stroke:#C82930;stroke-width:1.0;" width="6" x="562.5" y="85.5234"/><text fill="#000000" font-family="sans-serif" font-size="14" lengthAdjust="spacing" textLength="476" x="574.5" y="92.752">std::unordered_map&lt;uint32_t, VkDescriptorSetLayoutBinding&gt; m_Bindings;</text><text fill="#000000" font-family="sans-serif" font-size="14" lengthAdjust="spacing" textLength="4" x="574.5" y="110.3613">&#160;</text><ellipse cx="565.5" cy="123.7422" fill="none" rx="3" ry="3" style="stroke:#038048;stroke-width:1.0;"/><text fill="#000000" font-family="sans-serif" font-size="14" lengthAdjust="spacing" textLength="139" x="574.5" y="127.9707">class [nested] Builder;</text><rect fill="none" height="6" style="stroke:#C82930;stroke-width:1.0;" width="6" x="562.5" y="138.3516"/><text fill="#000000" font-family="sans-serif" font-size="14" lengthAdjust="spacing" textLength="183" x="574.5" y="145.5801">friend class DescriptorWriter;</text><line style="stroke:#181818;stroke-width:0.5;" x1="555.5" x2="1144.5" y1="152.6563" y2="152.6563"/><ellipse cx="565.5" cy="166.9609" fill="#84BE84" rx="3" ry="3" style="stroke:#038048;stroke-width:1.0;"/><text fill="#000000" font-family="sans-serif" font-size="14" lengthAdjust="spacing" textLength="430" x="574.5" y="171.1895">DescriptorSetLayout(Device &amp;device, std::unordered_map&lt;uint32_t,</text><text fill="#000000" font-family="sans-serif" font-size="14" lengthAdjust="spacing" textLength="266" x="574.5" y="188.7988">VkDescriptorSetLayoutBinding&gt; bindings);</text><ellipse cx="565.5" cy="202.1797" fill="#84BE84" rx="3" ry="3" style="stroke:#038048;stroke-width:1.0;"/><text fill="#000000" font-family="sans-serif" font-size="14" lengthAdjust="spacing" textLength="151" x="574.5" y="206.4082">~DescriptorSetLayout();</text><ellipse cx="565.5" cy="219.7891" fill="#84BE84" rx="3" ry="3" style="stroke:#038048;stroke-width:1.0;"/><text fill="#000000" font-family="sans-serif" font-size="14" lengthAdjust="spacing" textLength="378" x="574.5" y="224.0176">DescriptorSetLayout(const DescriptorSetLayout &amp;) = delete;</text><ellipse cx="565.5" cy="237.3984" fill="#84BE84" rx="3" ry="3" style="stroke:#038048;stroke-width:1.0;"/><text fill="#000000" font-family="sans-serif" font-size="14" lengthAdjust="spacing" textLength="453" x="574.5" y="241.627">DescriptorSetLayout &amp;operator=(const DescriptorSetLayout &amp;) = delete;</text><text fill="#000000" font-family="sans-serif" font-size="14" lengthAdjust="spacing" textLength="4" x="574.5" y="259.2363">&#160;</text><ellipse cx="565.5" cy="272.6172" fill="#84BE84" rx="3" ry="3" style="stroke:#038048;stroke-width:1.0;"/><text fill="#000000" font-family="sans-serif" font-size="14" lengthAdjust="spacing" textLength="565" x="574.5" y="276.8457">VkDescriptorSetLayout GetDescriptorSetLayout() const { return m_DescriptorSetLayout; }</text></g><!--SRC=[hLEnJiCm4Dtx5JT5ZGW3i3Lj9QeA5hQYCW2AGdmKgwaJx3DI5OLlnqriLwcime2NE7U-T-_UiuioLmgU1If2zhhGl6GenokaXtnVQOf7pGZCkW2NMk8NBn0YrdrZc83C-bZJXrfeMblpyksguaDmY0JHBMCBBXWNcx7cWcwkCuAtFf30Uhj4LKXUKoKVzpK26_mc7PXRw-tg8pUOAyetU5Vc6mNARnFmw4Mb1S4ChkBKiL749XCj-AV6h2OvFNRr8inxocQ8eXAAREabE2cS0AcDMyXA6aR8ibrUJns3uLo-WvLX3hlCRbNJfYCZMT7v4oZnnWHo9oObPncT27cEdJL7nQatEDJTfo58hXCnb84eDjumB97mB0H4LOqoDw7PNz4iN70-k4SApj7x3Gr892s5SITmB8NsjmiHxXf6-yyxvCSk1g_SlK3Nwrro50nEhzgJv7GurFu0]--></g></svg>