<?xml version="1.0" encoding="us-ascii" standalone="no"?><svg xmlns="http://www.w3.org/2000/svg" xmlns:xlink="http://www.w3.org/1999/xlink" contentStyleType="text/css" height="343px" preserveAspectRatio="none" style="width:1137px;height:343px;background:#FFFFFF;" version="1.1" viewBox="0 0 1137 343" width="1137px" zoomAndPan="magnify"><defs/><g><!--class [nested]Builder(Pool)--><g id="elem_[nested]Builder(Pool)"><rect codeLine="1" fill="#F1F1F1" height="259.3125" id="[nested]Builder(Pool)" rx="2.5" ry="2.5" style="stroke:#181818;stroke-width:0.5;" width="486" x="7" y="42.5"/><ellipse cx="179.25" cy="58.5" fill="#ADD1B2" rx="11" ry="11" style="stroke:#181818;stroke-width:1.0;"/><path d="M182.0156,54.375 Q182.1719,54.1563 182.3594,54.0469 Q182.5469,53.9375 182.7656,53.9375 Q183.1406,53.9375 183.375,54.2031 Q183.6094,54.4531 183.6094,55.0625 L183.6094,56.5156 Q183.6094,57.125 183.375,57.3906 Q183.1406,57.6563 182.7656,57.6563 Q182.4219,57.6563 182.2188,57.4531 Q182.0156,57.2656 181.9063,56.75 Q181.8594,56.3906 181.6719,56.2031 Q181.3438,55.8281 180.7344,55.6094 Q180.125,55.3906 179.5,55.3906 Q178.7344,55.3906 178.0938,55.7188 Q177.4688,56.0469 176.9688,56.7969 Q176.4844,57.5469 176.4844,58.5781 L176.4844,59.6719 Q176.4844,60.9063 177.375,61.7344 Q178.2656,62.5469 179.8594,62.5469 Q180.7969,62.5469 181.4531,62.2969 Q181.8438,62.1406 182.2656,61.7031 Q182.5313,61.4375 182.6719,61.3594 Q182.8281,61.2813 183.0313,61.2813 Q183.3594,61.2813 183.6094,61.5469 Q183.875,61.7969 183.875,62.1406 Q183.875,62.4844 183.5313,62.8906 Q183.0313,63.4688 182.2344,63.7969 Q181.1563,64.25 179.8594,64.25 Q178.3438,64.25 177.1406,63.625 Q176.1563,63.125 175.4688,62.0625 Q174.7813,60.9844 174.7813,59.7031 L174.7813,58.5469 Q174.7813,57.2188 175.3906,56.0781 Q176.0156,54.9219 177.1094,54.3125 Q178.2031,53.6875 179.4375,53.6875 Q180.1719,53.6875 180.8125,53.8594 Q181.4688,54.0156 182.0156,54.375 Z " fill="#000000"/><text fill="#000000" font-family="sans-serif" font-size="14" lengthAdjust="spacing" textLength="133" x="199.75" y="64.2285">[nested]Builder(Pool)</text><line style="stroke:#181818;stroke-width:0.5;" x1="8" x2="492" y1="74.5" y2="74.5"/><rect fill="none" height="6" style="stroke:#C82930;stroke-width:1.0;" width="6" x="15" y="85.8047"/><text fill="#000000" font-family="sans-serif" font-size="14" lengthAdjust="spacing" textLength="116" x="27" y="93.0332">Device &amp;r_Device;</text><rect fill="none" height="6" style="stroke:#C82930;stroke-width:1.0;" width="6" x="15" y="103.4141"/><text fill="#000000" font-family="sans-serif" font-size="14" lengthAdjust="spacing" textLength="315" x="27" y="110.6426">std::vector&lt;VkDescriptorPoolSize&gt; m_PoolSizes{};</text><rect fill="none" height="6" style="stroke:#C82930;stroke-width:1.0;" width="6" x="15" y="121.0234"/><text fill="#000000" font-family="sans-serif" font-size="14" lengthAdjust="spacing" textLength="179" x="27" y="128.252">uint32_t m_MaxSets = 1000;</text><rect fill="none" height="6" style="stroke:#C82930;stroke-width:1.0;" width="6" x="15" y="138.6328"/><text fill="#000000" font-family="sans-serif" font-size="14" lengthAdjust="spacing" textLength="301" x="27" y="145.8613">VkDescriptorPoolCreateFlags m_PoolFlags = 0;</text><line style="stroke:#181818;stroke-width:0.5;" x1="8" x2="492" y1="152.9375" y2="152.9375"/><ellipse cx="18" cy="167.2422" fill="#84BE84" rx="3" ry="3" style="stroke:#038048;stroke-width:1.0;"/><text fill="#000000" font-family="sans-serif" font-size="14" lengthAdjust="spacing" textLength="284" x="27" y="171.4707">Builder(Device &amp;device) : r_Device{device} {}</text><ellipse cx="18" cy="184.8516" fill="#84BE84" rx="3" ry="3" style="stroke:#038048;stroke-width:1.0;"/><text fill="#000000" font-family="sans-serif" font-size="14" lengthAdjust="spacing" textLength="76" x="27" y="189.0801">~Builder() {}</text><text fill="#000000" font-family="sans-serif" font-size="14" lengthAdjust="spacing" textLength="4" x="27" y="206.6895">&#160;</text><ellipse cx="18" cy="220.0703" fill="#84BE84" rx="3" ry="3" style="stroke:#038048;stroke-width:1.0;"/><text fill="#000000" font-family="sans-serif" font-size="14" lengthAdjust="spacing" textLength="460" x="27" y="224.2988">Builder &amp;AddPoolSize(VkDescriptorType descriptorType, uint32_t count);</text><ellipse cx="18" cy="237.6797" fill="#84BE84" rx="3" ry="3" style="stroke:#038048;stroke-width:1.0;"/><text fill="#000000" font-family="sans-serif" font-size="14" lengthAdjust="spacing" textLength="376" x="27" y="241.9082">Builder &amp;SetPoolFlags(VkDescriptorPoolCreateFlags flags);</text><ellipse cx="18" cy="255.2891" fill="#84BE84" rx="3" ry="3" style="stroke:#038048;stroke-width:1.0;"/><text fill="#000000" font-family="sans-serif" font-size="14" lengthAdjust="spacing" textLength="235" x="27" y="259.5176">Builder &amp;SetMaxSets(uint32_t count);</text><text fill="#000000" font-family="sans-serif" font-size="14" lengthAdjust="spacing" textLength="4" x="27" y="277.127">&#160;</text><ellipse cx="18" cy="290.5078" fill="#84BE84" rx="3" ry="3" style="stroke:#038048;stroke-width:1.0;"/><text fill="#000000" font-family="sans-serif" font-size="14" lengthAdjust="spacing" textLength="291" x="27" y="294.7363">std::unique_ptr&lt;DescriptorPool&gt; Build() const;</text></g><!--class DescriptorPool--><g id="elem_DescriptorPool"><rect codeLine="18" fill="#F1F1F1" height="329.75" id="DescriptorPool" rx="2.5" ry="2.5" style="stroke:#181818;stroke-width:0.5;" width="602" x="528" y="7"/><ellipse cx="778.25" cy="23" fill="#ADD1B2" rx="11" ry="11" style="stroke:#181818;stroke-width:1.0;"/><path d="M781.0156,18.875 Q781.1719,18.6563 781.3594,18.5469 Q781.5469,18.4375 781.7656,18.4375 Q782.1406,18.4375 782.375,18.7031 Q782.6094,18.9531 782.6094,19.5625 L782.6094,21.0156 Q782.6094,21.625 782.375,21.8906 Q782.1406,22.1563 781.7656,22.1563 Q781.4219,22.1563 781.2188,21.9531 Q781.0156,21.7656 780.9063,21.25 Q780.8594,20.8906 780.6719,20.7031 Q780.3438,20.3281 779.7344,20.1094 Q779.125,19.8906 778.5,19.8906 Q777.7344,19.8906 777.0938,20.2188 Q776.4688,20.5469 775.9688,21.2969 Q775.4844,22.0469 775.4844,23.0781 L775.4844,24.1719 Q775.4844,25.4063 776.375,26.2344 Q777.2656,27.0469 778.8594,27.0469 Q779.7969,27.0469 780.4531,26.7969 Q780.8438,26.6406 781.2656,26.2031 Q781.5313,25.9375 781.6719,25.8594 Q781.8281,25.7813 782.0313,25.7813 Q782.3594,25.7813 782.6094,26.0469 Q782.875,26.2969 782.875,26.6406 Q782.875,26.9844 782.5313,27.3906 Q782.0313,27.9688 781.2344,28.2969 Q780.1563,28.75 778.8594,28.75 Q777.3438,28.75 776.1406,28.125 Q775.1563,27.625 774.4688,26.5625 Q773.7813,25.4844 773.7813,24.2031 L773.7813,23.0469 Q773.7813,21.7188 774.3906,20.5781 Q775.0156,19.4219 776.1094,18.8125 Q777.2031,18.1875 778.4375,18.1875 Q779.1719,18.1875 779.8125,18.3594 Q780.4688,18.5156 781.0156,18.875 Z " fill="#000000"/><text fill="#000000" font-family="sans-serif" font-size="14" lengthAdjust="spacing" textLength="93" x="798.75" y="28.7285">DescriptorPool</text><line style="stroke:#181818;stroke-width:0.5;" x1="529" x2="1129" y1="39" y2="39"/><rect fill="none" height="6" style="stroke:#C82930;stroke-width:1.0;" width="6" x="536" y="50.3047"/><text fill="#000000" font-family="sans-serif" font-size="14" lengthAdjust="spacing" textLength="116" x="548" y="57.5332">Device &amp;r_Device;</text><rect fill="none" height="6" style="stroke:#C82930;stroke-width:1.0;" width="6" x="536" y="67.9141"/><text fill="#000000" font-family="sans-serif" font-size="14" lengthAdjust="spacing" textLength="229" x="548" y="75.1426">VkDescriptorPool m_DescriptorPool;</text><text fill="#000000" font-family="sans-serif" font-size="14" lengthAdjust="spacing" textLength="4" x="548" y="92.752">&#160;</text><ellipse cx="539" cy="106.1328" fill="none" rx="3" ry="3" style="stroke:#038048;stroke-width:1.0;"/><text fill="#000000" font-family="sans-serif" font-size="14" lengthAdjust="spacing" textLength="139" x="548" y="110.3613">class [nested] Builder;</text><rect fill="none" height="6" style="stroke:#C82930;stroke-width:1.0;" width="6" x="536" y="120.7422"/><text fill="#000000" font-family="sans-serif" font-size="14" lengthAdjust="spacing" textLength="183" x="548" y="127.9707">friend class DescriptorWriter;</text><line style="stroke:#181818;stroke-width:0.5;" x1="529" x2="1129" y1="135.0469" y2="135.0469"/><ellipse cx="539" cy="149.3516" fill="#84BE84" rx="3" ry="3" style="stroke:#038048;stroke-width:1.0;"/><text fill="#000000" font-family="sans-serif" font-size="14" lengthAdjust="spacing" textLength="576" x="548" y="153.5801">DescriptorPool(Device &amp;device, uint32_t maxSets, VkDescriptorPoolCreateFlags poolFlags,</text><text fill="#000000" font-family="sans-serif" font-size="14" lengthAdjust="spacing" textLength="337" x="548" y="171.1895">const std::vector&lt;VkDescriptorPoolSize&gt; &amp;poolSizes);</text><ellipse cx="539" cy="184.5703" fill="#84BE84" rx="3" ry="3" style="stroke:#038048;stroke-width:1.0;"/><text fill="#000000" font-family="sans-serif" font-size="14" lengthAdjust="spacing" textLength="115" x="548" y="188.7988">~DescriptorPool();</text><ellipse cx="539" cy="202.1797" fill="#84BE84" rx="3" ry="3" style="stroke:#038048;stroke-width:1.0;"/><text fill="#000000" font-family="sans-serif" font-size="14" lengthAdjust="spacing" textLength="306" x="548" y="206.4082">DescriptorPool(const DescriptorPool &amp;) = delete;</text><ellipse cx="539" cy="219.7891" fill="#84BE84" rx="3" ry="3" style="stroke:#038048;stroke-width:1.0;"/><text fill="#000000" font-family="sans-serif" font-size="14" lengthAdjust="spacing" textLength="381" x="548" y="224.0176">DescriptorPool &amp;operator=(const DescriptorPool &amp;) = delete;</text><text fill="#000000" font-family="sans-serif" font-size="14" lengthAdjust="spacing" textLength="4" x="548" y="241.627">&#160;</text><ellipse cx="539" cy="255.0078" fill="#84BE84" rx="3" ry="3" style="stroke:#038048;stroke-width:1.0;"/><text fill="#000000" font-family="sans-serif" font-size="14" lengthAdjust="spacing" textLength="469" x="548" y="259.2363">bool AllocateDescriptor(const VkDescriptorSetLayout descriptorSetLayout,</text><text fill="#000000" font-family="sans-serif" font-size="14" lengthAdjust="spacing" textLength="225" x="548" y="276.8457">VkDescriptorSet &amp;descriptor) const;</text><ellipse cx="539" cy="290.2266" fill="#84BE84" rx="3" ry="3" style="stroke:#038048;stroke-width:1.0;"/><text fill="#000000" font-family="sans-serif" font-size="14" lengthAdjust="spacing" textLength="451" x="548" y="294.4551">void FreeDescriptors(std::vector&lt;VkDescriptorSet&gt; &amp;descriptors) const;</text><text fill="#000000" font-family="sans-serif" font-size="14" lengthAdjust="spacing" textLength="4" x="548" y="312.0645">&#160;</text><ellipse cx="539" cy="325.4453" fill="#84BE84" rx="3" ry="3" style="stroke:#038048;stroke-width:1.0;"/><text fill="#000000" font-family="sans-serif" font-size="14" lengthAdjust="spacing" textLength="109" x="548" y="329.6738">void ResetPool();</text></g><!--SRC=[ZLJBJiCm4Bpp5NkA4b6a0hU-f4BL4qY88ZXG50LxYopIEDXEHQdQRyUEun27Kkg34uyzi-lPJKYQI0dF6Kg5zEMgO2b54TvndaOdcnFGunGSEi4L8mW1BPyHz4345jjOQ0kRRSMPxnmhCg2l1C6OKXDZnhumV7oVe2I2vOgBXtMEGBrb1mgMgSkBM07XHQQYVbjiXig8JTFaJNfg1hqMc2Wizs1Xvhtys-HJppBy5QewAnNjzOgCVHGOvqeC_1WZgwMlIdWcLSKw0sUOiwbVuQNQ2ecc3zhv6aj6i8pTkzni7QrERXbN-S8GphlThZjmwEvMqRuFGLDqKKXPV9zJLzs7MyLl56LfK-aSZ9wxs9rItOtIhYFi27BdHbsz-QwLOBtJmcqC7uGWqYPGJ57XVXe4F4UHwDNm28LAujLiZDEK4ttnd_ELGFDgsh6RPCqBrMZs6lCzQj5C1TooxZSRViKPXQd0HcWP_cMkbXerjQJVl9NQFKhxSONHlrtTBfrkEH-efOdtqt4VejDP28OPXNPpFWccpA7jDm00]--></g></svg>