<?xml version="1.0" encoding="us-ascii" standalone="no"?><svg xmlns="http://www.w3.org/2000/svg" xmlns:xlink="http://www.w3.org/1999/xlink" contentStyleType="text/css" height="157px" preserveAspectRatio="none" style="width:267px;height:157px;background:#FFFFFF;" version="1.1" viewBox="0 0 267 157" width="267px" zoomAndPan="magnify"><defs/><g><!--class FrameInfo--><g id="elem_FrameInfo"><rect codeLine="1" fill="#F1F1F1" height="136.0469" id="FrameInfo" rx="2.5" ry="2.5" style="stroke:#181818;stroke-width:0.5;" width="246" x="7" y="7"/><ellipse cx="93.75" cy="23" fill="#F1F1F1" rx="11" ry="11" style="stroke:#181818;stroke-width:1.0;"/><path d="M91.8594,27.5625 Q91.6406,27.8281 91.5,27.9063 Q91.3594,27.9844 91.1719,27.9844 Q90.7813,27.9844 90.5313,27.7188 Q90.2969,27.4531 90.2969,26.8594 L90.2969,25.7031 Q90.2969,25.0938 90.5313,24.8438 Q90.7813,24.5781 91.1719,24.5781 Q91.4688,24.5781 91.6719,24.7344 Q91.875,24.8906 91.9844,25.2656 Q92.0938,25.625 92.2031,25.7656 Q92.4531,26.0156 93.0625,26.2813 Q93.6719,26.5469 94.4063,26.5469 Q95.5469,26.5469 96.2656,26.0156 Q96.7344,25.6875 96.7344,25.2188 Q96.7344,24.9063 96.5156,24.625 Q96.2969,24.3438 95.7813,24.1719 Q95.4531,24.0469 94.2969,23.8281 Q92.9063,23.5625 92.1875,23.2031 Q91.4688,22.8438 91.0469,22.1875 Q90.6406,21.5156 90.6406,20.7344 Q90.6406,19.5156 91.6563,18.6094 Q92.6875,17.6875 94.3281,17.6875 Q94.9844,17.6875 95.5313,17.8281 Q96.0938,17.9688 96.5625,18.2656 Q96.8906,17.9531 97.2188,17.9531 Q97.5938,17.9531 97.8281,18.2188 Q98.0625,18.4688 98.0625,19.0781 L98.0625,20.3594 Q98.0625,20.9688 97.8281,21.2344 Q97.5938,21.4844 97.2188,21.4844 Q96.9063,21.4844 96.6719,21.2969 Q96.4844,21.1563 96.3906,20.7344 Q96.3125,20.3125 96.1719,20.125 Q95.9219,19.8125 95.4375,19.6094 Q94.9688,19.3906 94.3281,19.3906 Q93.4063,19.3906 92.875,19.8125 Q92.3438,20.2344 92.3438,20.7031 Q92.3438,21.0156 92.5625,21.3125 Q92.7813,21.6094 93.2031,21.7813 Q93.4844,21.8906 94.7813,22.1563 Q96.0938,22.4063 96.7969,22.7188 Q97.5,23.0156 97.9688,23.6719 Q98.4375,24.3281 98.4375,25.2344 Q98.4375,26.5 97.5469,27.25 Q96.3594,28.25 94.5313,28.25 Q93.8281,28.25 93.1563,28.0781 Q92.5,27.9063 91.8594,27.5625 Z " fill="#000000"/><text fill="#000000" font-family="sans-serif" font-size="14" lengthAdjust="spacing" textLength="64" x="114.25" y="28.7285">FrameInfo</text><line style="stroke:#181818;stroke-width:0.5;" x1="8" x2="252" y1="39" y2="39"/><text fill="#000000" font-family="sans-serif" font-size="14" lengthAdjust="spacing" textLength="92" x="13" y="57.5332">int frameIndex;</text><text fill="#000000" font-family="sans-serif" font-size="14" lengthAdjust="spacing" textLength="102" x="13" y="75.1426">float frameTime;</text><text fill="#000000" font-family="sans-serif" font-size="14" lengthAdjust="spacing" textLength="225" x="13" y="92.752">VkCommandBuffer commandBuffer;</text><text fill="#000000" font-family="sans-serif" font-size="14" lengthAdjust="spacing" textLength="114" x="13" y="110.3613">Camera &amp;camera;</text><text fill="#000000" font-family="sans-serif" font-size="14" lengthAdjust="spacing" textLength="234" x="13" y="127.9707">VkDescriptorSet globalDescriptorSet;</text><line style="stroke:#181818;stroke-width:0.5;" x1="8" x2="252" y1="135.0469" y2="135.0469"/></g><!--SRC=[AoufAaqkKN0hIinDzSnBo-Ugvb80Wioy4eKqY5XAQeKrM2mj9pyHAXgIcPiA4GpBTixFpKtCIt4gJKjBBL98HkP1b3W3DHGbAgWbWscODfVKukIYp8AI_ABWr1A5z9pyfCGS535hhbe0]--></g></svg>