<?xml version="1.0" encoding="us-ascii" standalone="no"?><svg xmlns="http://www.w3.org/2000/svg" xmlns:xlink="http://www.w3.org/1999/xlink" contentStyleType="text/css" height="326px" preserveAspectRatio="none" style="width:762px;height:326px;background:#FFFFFF;" version="1.1" viewBox="0 0 762 326" width="762px" zoomAndPan="magnify"><defs/><g><!--class TransformComponent--><g id="elem_TransformComponent"><rect codeLine="1" fill="#F1F1F1" height="118.4375" id="TransformComponent" rx="2.5" ry="2.5" style="stroke:#181818;stroke-width:0.5;" width="211" x="7" y="104"/><ellipse cx="40.45" cy="120" fill="#F1F1F1" rx="11" ry="11" style="stroke:#181818;stroke-width:1.0;"/><path d="M38.5594,124.5625 Q38.3406,124.8281 38.2,124.9063 Q38.0594,124.9844 37.8719,124.9844 Q37.4813,124.9844 37.2313,124.7188 Q36.9969,124.4531 36.9969,123.8594 L36.9969,122.7031 Q36.9969,122.0938 37.2313,121.8438 Q37.4813,121.5781 37.8719,121.5781 Q38.1688,121.5781 38.3719,121.7344 Q38.575,121.8906 38.6844,122.2656 Q38.7938,122.625 38.9031,122.7656 Q39.1531,123.0156 39.7625,123.2813 Q40.3719,123.5469 41.1063,123.5469 Q42.2469,123.5469 42.9656,123.0156 Q43.4344,122.6875 43.4344,122.2188 Q43.4344,121.9063 43.2156,121.625 Q42.9969,121.3438 42.4813,121.1719 Q42.1531,121.0469 40.9969,120.8281 Q39.6063,120.5625 38.8875,120.2031 Q38.1688,119.8438 37.7469,119.1875 Q37.3406,118.5156 37.3406,117.7344 Q37.3406,116.5156 38.3563,115.6094 Q39.3875,114.6875 41.0281,114.6875 Q41.6844,114.6875 42.2313,114.8281 Q42.7938,114.9688 43.2625,115.2656 Q43.5906,114.9531 43.9188,114.9531 Q44.2938,114.9531 44.5281,115.2188 Q44.7625,115.4688 44.7625,116.0781 L44.7625,117.3594 Q44.7625,117.9688 44.5281,118.2344 Q44.2938,118.4844 43.9188,118.4844 Q43.6063,118.4844 43.3719,118.2969 Q43.1844,118.1563 43.0906,117.7344 Q43.0125,117.3125 42.8719,117.125 Q42.6219,116.8125 42.1375,116.6094 Q41.6688,116.3906 41.0281,116.3906 Q40.1063,116.3906 39.575,116.8125 Q39.0438,117.2344 39.0438,117.7031 Q39.0438,118.0156 39.2625,118.3125 Q39.4813,118.6094 39.9031,118.7813 Q40.1844,118.8906 41.4813,119.1563 Q42.7938,119.4063 43.4969,119.7188 Q44.2,120.0156 44.6688,120.6719 Q45.1375,121.3281 45.1375,122.2344 Q45.1375,123.5 44.2469,124.25 Q43.0594,125.25 41.2313,125.25 Q40.5281,125.25 39.8563,125.0781 Q39.2,124.9063 38.5594,124.5625 Z " fill="#000000"/><text fill="#000000" font-family="sans-serif" font-size="14" lengthAdjust="spacing" textLength="138" x="58.55" y="125.7285">TransformComponent</text><line style="stroke:#181818;stroke-width:0.5;" x1="8" x2="217" y1="136" y2="136"/><text fill="#000000" font-family="sans-serif" font-size="14" lengthAdjust="spacing" textLength="144" x="13" y="154.5332">glm::vec3 translation{};</text><text fill="#000000" font-family="sans-serif" font-size="14" lengthAdjust="spacing" textLength="199" x="13" y="172.1426">glm::vec3 scale{1.0f, 1.0f, 1.0f};</text><text fill="#000000" font-family="sans-serif" font-size="14" lengthAdjust="spacing" textLength="126" x="13" y="189.752">glm::vec3 rotation{};</text><line style="stroke:#181818;stroke-width:0.5;" x1="8" x2="217" y1="196.8281" y2="196.8281"/><text fill="#000000" font-family="sans-serif" font-size="14" lengthAdjust="spacing" textLength="163" x="13" y="215.3613">glm::mat4 GetModelMat();</text></g><!--class DivineGameObject--><g id="elem_DivineGameObject"><rect codeLine="10" fill="#F1F1F1" height="312.1406" id="DivineGameObject" rx="2.5" ry="2.5" style="stroke:#181818;stroke-width:0.5;" width="502" x="253.5" y="7"/><ellipse cx="441.25" cy="23" fill="#ADD1B2" rx="11" ry="11" style="stroke:#181818;stroke-width:1.0;"/><path d="M444.0156,18.875 Q444.1719,18.6563 444.3594,18.5469 Q444.5469,18.4375 444.7656,18.4375 Q445.1406,18.4375 445.375,18.7031 Q445.6094,18.9531 445.6094,19.5625 L445.6094,21.0156 Q445.6094,21.625 445.375,21.8906 Q445.1406,22.1563 444.7656,22.1563 Q444.4219,22.1563 444.2188,21.9531 Q444.0156,21.7656 443.9063,21.25 Q443.8594,20.8906 443.6719,20.7031 Q443.3438,20.3281 442.7344,20.1094 Q442.125,19.8906 441.5,19.8906 Q440.7344,19.8906 440.0938,20.2188 Q439.4688,20.5469 438.9688,21.2969 Q438.4844,22.0469 438.4844,23.0781 L438.4844,24.1719 Q438.4844,25.4063 439.375,26.2344 Q440.2656,27.0469 441.8594,27.0469 Q442.7969,27.0469 443.4531,26.7969 Q443.8438,26.6406 444.2656,26.2031 Q444.5313,25.9375 444.6719,25.8594 Q444.8281,25.7813 445.0313,25.7813 Q445.3594,25.7813 445.6094,26.0469 Q445.875,26.2969 445.875,26.6406 Q445.875,26.9844 445.5313,27.3906 Q445.0313,27.9688 444.2344,28.2969 Q443.1563,28.75 441.8594,28.75 Q440.3438,28.75 439.1406,28.125 Q438.1563,27.625 437.4688,26.5625 Q436.7813,25.4844 436.7813,24.2031 L436.7813,23.0469 Q436.7813,21.7188 437.3906,20.5781 Q438.0156,19.4219 439.1094,18.8125 Q440.2031,18.1875 441.4375,18.1875 Q442.1719,18.1875 442.8125,18.3594 Q443.4688,18.5156 444.0156,18.875 Z " fill="#000000"/><text fill="#000000" font-family="sans-serif" font-size="14" lengthAdjust="spacing" textLength="118" x="461.75" y="28.7285">DivineGameObject</text><line style="stroke:#181818;stroke-width:0.5;" x1="254.5" x2="754.5" y1="39" y2="39"/><ellipse cx="264.5" cy="53.3047" fill="none" rx="3" ry="3" style="stroke:#038048;stroke-width:1.0;"/><text fill="#000000" font-family="sans-serif" font-size="14" lengthAdjust="spacing" textLength="159" x="273.5" y="57.5332">typedef unsigned int id_t;</text><ellipse cx="264.5" cy="70.9141" fill="none" rx="3" ry="3" style="stroke:#038048;stroke-width:1.0;"/><text fill="#000000" font-family="sans-serif" font-size="14" lengthAdjust="spacing" textLength="229" x="273.5" y="75.1426">std::shared_ptr&lt;Model&gt; sp_Model{};</text><ellipse cx="264.5" cy="88.5234" fill="none" rx="3" ry="3" style="stroke:#038048;stroke-width:1.0;"/><text fill="#000000" font-family="sans-serif" font-size="14" lengthAdjust="spacing" textLength="131" x="273.5" y="92.752">glm::vec3 m_Color{};</text><ellipse cx="264.5" cy="106.1328" fill="none" rx="3" ry="3" style="stroke:#038048;stroke-width:1.0;"/><text fill="#000000" font-family="sans-serif" font-size="14" lengthAdjust="spacing" textLength="250" x="273.5" y="110.3613">TransformComponent m_ModelMatrix{};</text><text fill="#000000" font-family="sans-serif" font-size="14" lengthAdjust="spacing" textLength="4" x="273.5" y="127.9707">&#160;</text><rect fill="none" height="6" style="stroke:#C82930;stroke-width:1.0;" width="6" x="261.5" y="138.3516"/><text fill="#000000" font-family="sans-serif" font-size="14" lengthAdjust="spacing" textLength="63" x="273.5" y="145.5801">id_t m_ID;</text><line style="stroke:#181818;stroke-width:0.5;" x1="254.5" x2="754.5" y1="152.6563" y2="152.6563"/><ellipse cx="264.5" cy="166.9609" fill="#84BE84" rx="3" ry="3" style="stroke:#038048;stroke-width:1.0;"/><text fill="#000000" font-family="sans-serif" font-size="14" lengthAdjust="spacing" textLength="356" x="273.5" y="171.1895">DivineGameObject(const DivineGameObject &amp;) = delete;</text><ellipse cx="264.5" cy="184.5703" fill="#84BE84" rx="3" ry="3" style="stroke:#038048;stroke-width:1.0;"/><text fill="#000000" font-family="sans-serif" font-size="14" lengthAdjust="spacing" textLength="431" x="273.5" y="188.7988">DivineGameObject &amp;operator=(const DivineGameObject &amp;) = delete;</text><ellipse cx="264.5" cy="202.1797" fill="#84BE84" rx="3" ry="3" style="stroke:#038048;stroke-width:1.0;"/><text fill="#000000" font-family="sans-serif" font-size="14" lengthAdjust="spacing" textLength="445" x="273.5" y="206.4082">DivineGameObject(DivineGameObject &amp;&amp;) = default;            // no const</text><ellipse cx="264.5" cy="219.7891" fill="#84BE84" rx="3" ry="3" style="stroke:#038048;stroke-width:1.0;"/><text fill="#000000" font-family="sans-serif" font-size="14" lengthAdjust="spacing" textLength="476" x="273.5" y="224.0176">DivineGameObject &amp;operator=(DivineGameObject &amp;&amp;) = default; // no const</text><text fill="#000000" font-family="sans-serif" font-size="14" lengthAdjust="spacing" textLength="4" x="273.5" y="241.627">&#160;</text><ellipse cx="264.5" cy="255.0078" fill="#84BE84" rx="3" ry="3" style="stroke:#038048;stroke-width:1.0;"/><text fill="#000000" font-family="sans-serif" font-size="14" lengthAdjust="spacing" text-decoration="underline" textLength="258" x="273.5" y="259.2363">DivineGameObject CreateGameObject();</text><ellipse cx="264.5" cy="272.6172" fill="#84BE84" rx="3" ry="3" style="stroke:#038048;stroke-width:1.0;"/><text fill="#000000" font-family="sans-serif" font-size="14" lengthAdjust="spacing" textLength="248" x="273.5" y="276.8457">inline id_t GetID() const { return m_ID; }</text><text fill="#000000" font-family="sans-serif" font-size="14" lengthAdjust="spacing" textLength="4" x="273.5" y="294.4551">&#160;</text><rect fill="#F24D5C" height="6" style="stroke:#C82930;stroke-width:1.0;" width="6" x="261.5" y="304.8359"/><text fill="#000000" font-family="sans-serif" font-size="14" lengthAdjust="spacing" textLength="315" x="273.5" y="312.0645">DivineGameObject(id_t objID)        : m_ID{objID} {}</text></g><!--SRC=[fLBBJiCm4BpdA_Q44XKe24u9vT98LGyL5-wHwsnBAZyYUrE18lyxYLkh0Gk1X0-MvPsPdRN7akaumQjXokwqaKijMwrGKT8dCAoza7b-HFu0D484eqQhtXNVYfOpWVtzxTtk6Yvx13EQlWXSofBH8woGDhf6iM6KPaNYaeGBPYsKpR5Hk68INxO7vC7RB2gaN2jBqJLSPR20GHW9Yn-eSALRD8oqMVn39Or9PzQETO8AcApv79G6t-iFdduJdggTvNexlZPtiUxI8AEfxImCr2WnGA6fAng_OrscsKaKUZ18dL4WgtLPW3jrkOcVm7Frzh0kip1gxaczltJGk-2GFbeS9e1EsMQli1xQa-yTx5Ygyzo-CODrrP9vyl5u1jjM_XHoD9jaJ5PBBRIvbE9i3vYGCzEyZyZpBDwwdozndm00]--></g></svg>