<?xml version="1.0" encoding="us-ascii" standalone="no"?><svg xmlns="http://www.w3.org/2000/svg" xmlns:xlink="http://www.w3.org/1999/xlink" contentStyleType="text/css" height="238px" preserveAspectRatio="none" style="width:868px;height:238px;background:#FFFFFF;" version="1.1" viewBox="0 0 868 238" width="868px" zoomAndPan="magnify"><defs/><g><!--class KeyMappings--><g id="elem_KeyMappings"><rect codeLine="1" fill="#F1F1F1" height="224.0938" id="KeyMappings" rx="2.5" ry="2.5" style="stroke:#181818;stroke-width:0.5;" width="239" x="7" y="7"/><ellipse cx="79.75" cy="23" fill="#F1F1F1" rx="11" ry="11" style="stroke:#181818;stroke-width:1.0;"/><path d="M77.8594,27.5625 Q77.6406,27.8281 77.5,27.9063 Q77.3594,27.9844 77.1719,27.9844 Q76.7813,27.9844 76.5313,27.7188 Q76.2969,27.4531 76.2969,26.8594 L76.2969,25.7031 Q76.2969,25.0938 76.5313,24.8438 Q76.7813,24.5781 77.1719,24.5781 Q77.4688,24.5781 77.6719,24.7344 Q77.875,24.8906 77.9844,25.2656 Q78.0938,25.625 78.2031,25.7656 Q78.4531,26.0156 79.0625,26.2813 Q79.6719,26.5469 80.4063,26.5469 Q81.5469,26.5469 82.2656,26.0156 Q82.7344,25.6875 82.7344,25.2188 Q82.7344,24.9063 82.5156,24.625 Q82.2969,24.3438 81.7813,24.1719 Q81.4531,24.0469 80.2969,23.8281 Q78.9063,23.5625 78.1875,23.2031 Q77.4688,22.8438 77.0469,22.1875 Q76.6406,21.5156 76.6406,20.7344 Q76.6406,19.5156 77.6563,18.6094 Q78.6875,17.6875 80.3281,17.6875 Q80.9844,17.6875 81.5313,17.8281 Q82.0938,17.9688 82.5625,18.2656 Q82.8906,17.9531 83.2188,17.9531 Q83.5938,17.9531 83.8281,18.2188 Q84.0625,18.4688 84.0625,19.0781 L84.0625,20.3594 Q84.0625,20.9688 83.8281,21.2344 Q83.5938,21.4844 83.2188,21.4844 Q82.9063,21.4844 82.6719,21.2969 Q82.4844,21.1563 82.3906,20.7344 Q82.3125,20.3125 82.1719,20.125 Q81.9219,19.8125 81.4375,19.6094 Q80.9688,19.3906 80.3281,19.3906 Q79.4063,19.3906 78.875,19.8125 Q78.3438,20.2344 78.3438,20.7031 Q78.3438,21.0156 78.5625,21.3125 Q78.7813,21.6094 79.2031,21.7813 Q79.4844,21.8906 80.7813,22.1563 Q82.0938,22.4063 82.7969,22.7188 Q83.5,23.0156 83.9688,23.6719 Q84.4375,24.3281 84.4375,25.2344 Q84.4375,26.5 83.5469,27.25 Q82.3594,28.25 80.5313,28.25 Q79.8281,28.25 79.1563,28.0781 Q78.5,27.9063 77.8594,27.5625 Z " fill="#000000"/><text fill="#000000" font-family="sans-serif" font-size="14" lengthAdjust="spacing" textLength="85" x="100.25" y="28.7285">KeyMappings</text><line style="stroke:#181818;stroke-width:0.5;" x1="8" x2="245" y1="39" y2="39"/><text fill="#000000" font-family="sans-serif" font-size="14" lengthAdjust="spacing" textLength="190" x="13" y="57.5332">int moveLeft = GLFW_KEY_A;</text><text fill="#000000" font-family="sans-serif" font-size="14" lengthAdjust="spacing" textLength="200" x="13" y="75.1426">int moveRight = GLFW_KEY_D;</text><text fill="#000000" font-family="sans-serif" font-size="14" lengthAdjust="spacing" textLength="222" x="13" y="92.752">int moveForward = GLFW_KEY_W;</text><text fill="#000000" font-family="sans-serif" font-size="14" lengthAdjust="spacing" textLength="227" x="13" y="110.3613">int moveBackward = GLFW_KEY_S;</text><text fill="#000000" font-family="sans-serif" font-size="14" lengthAdjust="spacing" textLength="183" x="13" y="127.9707">int moveUp = GLFW_KEY_E;</text><text fill="#000000" font-family="sans-serif" font-size="14" lengthAdjust="spacing" textLength="203" x="13" y="145.5801">int moveDown = GLFW_KEY_Q;</text><text fill="#000000" font-family="sans-serif" font-size="14" lengthAdjust="spacing" textLength="208" x="13" y="163.1895">int lookLeft = GLFW_KEY_LEFT;</text><text fill="#000000" font-family="sans-serif" font-size="14" lengthAdjust="spacing" textLength="224" x="13" y="180.7988">int lookRight = GLFW_KEY_RIGHT;</text><text fill="#000000" font-family="sans-serif" font-size="14" lengthAdjust="spacing" textLength="184" x="13" y="198.4082">int lookUp = GLFW_KEY_UP;</text><text fill="#000000" font-family="sans-serif" font-size="14" lengthAdjust="spacing" textLength="227" x="13" y="216.0176">int lookDown = GLFW_KEY_DOWN;</text><line style="stroke:#181818;stroke-width:0.5;" x1="8" x2="245" y1="223.0938" y2="223.0938"/></g><!--class KeyboardController--><g id="elem_KeyboardController"><rect codeLine="15" fill="#F1F1F1" height="118.4375" id="KeyboardController" rx="2.5" ry="2.5" style="stroke:#181818;stroke-width:0.5;" width="580" x="281.5" y="60"/><ellipse cx="505.75" cy="76" fill="#ADD1B2" rx="11" ry="11" style="stroke:#181818;stroke-width:1.0;"/><path d="M508.5156,71.875 Q508.6719,71.6563 508.8594,71.5469 Q509.0469,71.4375 509.2656,71.4375 Q509.6406,71.4375 509.875,71.7031 Q510.1094,71.9531 510.1094,72.5625 L510.1094,74.0156 Q510.1094,74.625 509.875,74.8906 Q509.6406,75.1563 509.2656,75.1563 Q508.9219,75.1563 508.7188,74.9531 Q508.5156,74.7656 508.4063,74.25 Q508.3594,73.8906 508.1719,73.7031 Q507.8438,73.3281 507.2344,73.1094 Q506.625,72.8906 506,72.8906 Q505.2344,72.8906 504.5938,73.2188 Q503.9688,73.5469 503.4688,74.2969 Q502.9844,75.0469 502.9844,76.0781 L502.9844,77.1719 Q502.9844,78.4063 503.875,79.2344 Q504.7656,80.0469 506.3594,80.0469 Q507.2969,80.0469 507.9531,79.7969 Q508.3438,79.6406 508.7656,79.2031 Q509.0313,78.9375 509.1719,78.8594 Q509.3281,78.7813 509.5313,78.7813 Q509.8594,78.7813 510.1094,79.0469 Q510.375,79.2969 510.375,79.6406 Q510.375,79.9844 510.0313,80.3906 Q509.5313,80.9688 508.7344,81.2969 Q507.6563,81.75 506.3594,81.75 Q504.8438,81.75 503.6406,81.125 Q502.6563,80.625 501.9688,79.5625 Q501.2813,78.4844 501.2813,77.2031 L501.2813,76.0469 Q501.2813,74.7188 501.8906,73.5781 Q502.5156,72.4219 503.6094,71.8125 Q504.7031,71.1875 505.9375,71.1875 Q506.6719,71.1875 507.3125,71.3594 Q507.9688,71.5156 508.5156,71.875 Z " fill="#000000"/><text fill="#000000" font-family="sans-serif" font-size="14" lengthAdjust="spacing" textLength="123" x="526.25" y="81.7285">KeyboardController</text><line style="stroke:#181818;stroke-width:0.5;" x1="282.5" x2="860.5" y1="92" y2="92"/><ellipse cx="292.5" cy="106.3047" fill="none" rx="3" ry="3" style="stroke:#038048;stroke-width:1.0;"/><text fill="#000000" font-family="sans-serif" font-size="14" lengthAdjust="spacing" textLength="153" x="301.5" y="110.5332">KeyMappings m_Keys{};</text><ellipse cx="292.5" cy="123.9141" fill="none" rx="3" ry="3" style="stroke:#038048;stroke-width:1.0;"/><text fill="#000000" font-family="sans-serif" font-size="14" lengthAdjust="spacing" textLength="169" x="301.5" y="128.1426">float m_MoveSpeed = 3.0f;</text><ellipse cx="292.5" cy="141.5234" fill="none" rx="3" ry="3" style="stroke:#038048;stroke-width:1.0;"/><text fill="#000000" font-family="sans-serif" font-size="14" lengthAdjust="spacing" textLength="165" x="301.5" y="145.752">float m_TurnSpeed = 1.5f;</text><line style="stroke:#181818;stroke-width:0.5;" x1="282.5" x2="860.5" y1="152.8281" y2="152.8281"/><ellipse cx="292.5" cy="167.1328" fill="#84BE84" rx="3" ry="3" style="stroke:#038048;stroke-width:1.0;"/><text fill="#000000" font-family="sans-serif" font-size="14" lengthAdjust="spacing" textLength="554" x="301.5" y="171.3613">void MoveInPlaneXZ(GLFWwindow *window, float dt, DivineGameObject &amp;gameObjects);</text></g><!--SRC=[PP7BJiCm44Nt_efP8HvL1KAi8XP07bHDQUb30JQHcpZ1rB4Zsqs4glnx7JL07BonhNDrP-wCqdAVQ9YIxnakIyfpXGu8pA5SGo4g4f9Cmpq4eH_5K-yzVd0ilAJvfyLTc_j2rbYcVKLaAnvniXjALhPaK_QXPqDNrBoFN_ym4s8tx3_q_BMj-1TXEGcU1ngxWyt2fiCMt7dqug06eOHXfThXReL9-2Iube8n8hiPNq4bQ0epasB25mnpylPnthhKbAUYXilJFOAC2QmXrIDmQKKv2N11vjilOZPtbl- -rOM3Ej_UFg68pKyT6gTZ9xCYRikkIaBQoT-EhxCXN-yb_-4tupl3coC0]--></g></svg>