<?xml version="1.0" encoding="us-ascii" standalone="no"?><svg xmlns="http://www.w3.org/2000/svg" xmlns:xlink="http://www.w3.org/1999/xlink" contentStyleType="text/css" height="238px" preserveAspectRatio="none" style="width:868px;height:238px;background:#FFFFFF;" version="1.1" viewBox="0 0 868 238" width="868px" zoomAndPan="magnify"><defs/><g><!--class [nested]KeyMappings--><g id="elem_[nested]KeyMappings"><rect codeLine="1" fill="#F1F1F1" height="224.0938" id="[nested]KeyMappings" rx="2.5" ry="2.5" style="stroke:#181818;stroke-width:0.5;" width="239" x="7" y="7"/><ellipse cx="54.25" cy="23" fill="#F1F1F1" rx="11" ry="11" style="stroke:#181818;stroke-width:1.0;"/><path d="M52.3594,27.5625 Q52.1406,27.8281 52,27.9063 Q51.8594,27.9844 51.6719,27.9844 Q51.2813,27.9844 51.0313,27.7188 Q50.7969,27.4531 50.7969,26.8594 L50.7969,25.7031 Q50.7969,25.0938 51.0313,24.8438 Q51.2813,24.5781 51.6719,24.5781 Q51.9688,24.5781 52.1719,24.7344 Q52.375,24.8906 52.4844,25.2656 Q52.5938,25.625 52.7031,25.7656 Q52.9531,26.0156 53.5625,26.2813 Q54.1719,26.5469 54.9063,26.5469 Q56.0469,26.5469 56.7656,26.0156 Q57.2344,25.6875 57.2344,25.2188 Q57.2344,24.9063 57.0156,24.625 Q56.7969,24.3438 56.2813,24.1719 Q55.9531,24.0469 54.7969,23.8281 Q53.4063,23.5625 52.6875,23.2031 Q51.9688,22.8438 51.5469,22.1875 Q51.1406,21.5156 51.1406,20.7344 Q51.1406,19.5156 52.1563,18.6094 Q53.1875,17.6875 54.8281,17.6875 Q55.4844,17.6875 56.0313,17.8281 Q56.5938,17.9688 57.0625,18.2656 Q57.3906,17.9531 57.7188,17.9531 Q58.0938,17.9531 58.3281,18.2188 Q58.5625,18.4688 58.5625,19.0781 L58.5625,20.3594 Q58.5625,20.9688 58.3281,21.2344 Q58.0938,21.4844 57.7188,21.4844 Q57.4063,21.4844 57.1719,21.2969 Q56.9844,21.1563 56.8906,20.7344 Q56.8125,20.3125 56.6719,20.125 Q56.4219,19.8125 55.9375,19.6094 Q55.4688,19.3906 54.8281,19.3906 Q53.9063,19.3906 53.375,19.8125 Q52.8438,20.2344 52.8438,20.7031 Q52.8438,21.0156 53.0625,21.3125 Q53.2813,21.6094 53.7031,21.7813 Q53.9844,21.8906 55.2813,22.1563 Q56.5938,22.4063 57.2969,22.7188 Q58,23.0156 58.4688,23.6719 Q58.9375,24.3281 58.9375,25.2344 Q58.9375,26.5 58.0469,27.25 Q56.8594,28.25 55.0313,28.25 Q54.3281,28.25 53.6563,28.0781 Q53,27.9063 52.3594,27.5625 Z " fill="#000000"/><text fill="#000000" font-family="sans-serif" font-size="14" lengthAdjust="spacing" textLength="136" x="74.75" y="28.7285">[nested]KeyMappings</text><line style="stroke:#181818;stroke-width:0.5;" x1="8" x2="245" y1="39" y2="39"/><text fill="#000000" font-family="sans-serif" font-size="14" lengthAdjust="spacing" textLength="190" x="13" y="57.5332">int moveLeft = GLFW_KEY_A;</text><text fill="#000000" font-family="sans-serif" font-size="14" lengthAdjust="spacing" textLength="200" x="13" y="75.1426">int moveRight = GLFW_KEY_D;</text><text fill="#000000" font-family="sans-serif" font-size="14" lengthAdjust="spacing" textLength="222" x="13" y="92.752">int moveForward = GLFW_KEY_W;</text><text fill="#000000" font-family="sans-serif" font-size="14" lengthAdjust="spacing" textLength="227" x="13" y="110.3613">int moveBackward = GLFW_KEY_S;</text><text fill="#000000" font-family="sans-serif" font-size="14" lengthAdjust="spacing" textLength="183" x="13" y="127.9707">int moveUp = GLFW_KEY_E;</text><text fill="#000000" font-family="sans-serif" font-size="14" lengthAdjust="spacing" textLength="203" x="13" y="145.5801">int moveDown = GLFW_KEY_Q;</text><text fill="#000000" font-family="sans-serif" font-size="14" lengthAdjust="spacing" textLength="208" x="13" y="163.1895">int lookLeft = GLFW_KEY_LEFT;</text><text fill="#000000" font-family="sans-serif" font-size="14" lengthAdjust="spacing" textLength="224" x="13" y="180.7988">int lookRight = GLFW_KEY_RIGHT;</text><text fill="#000000" font-family="sans-serif" font-size="14" lengthAdjust="spacing" textLength="184" x="13" y="198.4082">int lookUp = GLFW_KEY_UP;</text><text fill="#000000" font-family="sans-serif" font-size="14" lengthAdjust="spacing" textLength="227" x="13" y="216.0176">int lookDown = GLFW_KEY_DOWN;</text><line style="stroke:#181818;stroke-width:0.5;" x1="8" x2="245" y1="223.0938" y2="223.0938"/></g><!--class KeyboardController--><g id="elem_KeyboardController"><rect codeLine="15" fill="#F1F1F1" height="153.6563" id="KeyboardController" rx="2.5" ry="2.5" style="stroke:#181818;stroke-width:0.5;" width="580" x="281.5" y="42"/><ellipse cx="505.75" cy="58" fill="#ADD1B2" rx="11" ry="11" style="stroke:#181818;stroke-width:1.0;"/><path d="M508.5156,53.875 Q508.6719,53.6563 508.8594,53.5469 Q509.0469,53.4375 509.2656,53.4375 Q509.6406,53.4375 509.875,53.7031 Q510.1094,53.9531 510.1094,54.5625 L510.1094,56.0156 Q510.1094,56.625 509.875,56.8906 Q509.6406,57.1563 509.2656,57.1563 Q508.9219,57.1563 508.7188,56.9531 Q508.5156,56.7656 508.4063,56.25 Q508.3594,55.8906 508.1719,55.7031 Q507.8438,55.3281 507.2344,55.1094 Q506.625,54.8906 506,54.8906 Q505.2344,54.8906 504.5938,55.2188 Q503.9688,55.5469 503.4688,56.2969 Q502.9844,57.0469 502.9844,58.0781 L502.9844,59.1719 Q502.9844,60.4063 503.875,61.2344 Q504.7656,62.0469 506.3594,62.0469 Q507.2969,62.0469 507.9531,61.7969 Q508.3438,61.6406 508.7656,61.2031 Q509.0313,60.9375 509.1719,60.8594 Q509.3281,60.7813 509.5313,60.7813 Q509.8594,60.7813 510.1094,61.0469 Q510.375,61.2969 510.375,61.6406 Q510.375,61.9844 510.0313,62.3906 Q509.5313,62.9688 508.7344,63.2969 Q507.6563,63.75 506.3594,63.75 Q504.8438,63.75 503.6406,63.125 Q502.6563,62.625 501.9688,61.5625 Q501.2813,60.4844 501.2813,59.2031 L501.2813,58.0469 Q501.2813,56.7188 501.8906,55.5781 Q502.5156,54.4219 503.6094,53.8125 Q504.7031,53.1875 505.9375,53.1875 Q506.6719,53.1875 507.3125,53.3594 Q507.9688,53.5156 508.5156,53.875 Z " fill="#000000"/><text fill="#000000" font-family="sans-serif" font-size="14" lengthAdjust="spacing" textLength="123" x="526.25" y="63.7285">KeyboardController</text><line style="stroke:#181818;stroke-width:0.5;" x1="282.5" x2="860.5" y1="74" y2="74"/><ellipse cx="292.5" cy="88.3047" fill="none" rx="3" ry="3" style="stroke:#038048;stroke-width:1.0;"/><text fill="#000000" font-family="sans-serif" font-size="14" lengthAdjust="spacing" textLength="183" x="301.5" y="92.5332">[nested] struct KeyMappings;</text><text fill="#000000" font-family="sans-serif" font-size="14" lengthAdjust="spacing" textLength="4" x="301.5" y="110.1426">&#160;</text><ellipse cx="292.5" cy="123.5234" fill="none" rx="3" ry="3" style="stroke:#038048;stroke-width:1.0;"/><text fill="#000000" font-family="sans-serif" font-size="14" lengthAdjust="spacing" textLength="153" x="301.5" y="127.752">KeyMappings m_Keys{};</text><ellipse cx="292.5" cy="141.1328" fill="none" rx="3" ry="3" style="stroke:#038048;stroke-width:1.0;"/><text fill="#000000" font-family="sans-serif" font-size="14" lengthAdjust="spacing" textLength="165" x="301.5" y="145.3613">float m_TurnSpeed = 1.5f;</text><ellipse cx="292.5" cy="158.7422" fill="none" rx="3" ry="3" style="stroke:#038048;stroke-width:1.0;"/><text fill="#000000" font-family="sans-serif" font-size="14" lengthAdjust="spacing" textLength="169" x="301.5" y="162.9707">float m_MoveSpeed = 3.0f;</text><line style="stroke:#181818;stroke-width:0.5;" x1="282.5" x2="860.5" y1="170.0469" y2="170.0469"/><ellipse cx="292.5" cy="184.3516" fill="#84BE84" rx="3" ry="3" style="stroke:#038048;stroke-width:1.0;"/><text fill="#000000" font-family="sans-serif" font-size="14" lengthAdjust="spacing" textLength="554" x="301.5" y="188.5801">void MoveInPlaneXZ(GLFWwindow *window, float dt, DivineGameObject &amp;gameObjects);</text></g><!--SRC=[PP59JyCm58Jl_XK-8PQg0Y5E4GSW2rLJMheeB4AHcxm4KyUERBSHglhVSTGGuk2Bbs_qD3DMMcuJZTyvA0tfnnY-9wGiASyLsYDi5kKQ5s878MGQt-8WzADuxBt6Tuw5vpJ_jBXhSr_8YiYqguXinJr9Ddt9mfQioYxqREYAYdVnynzcGcpw_aFFNzgAVn7ce-2nfx4Th6OsxLjmfz6JWmu89OmeXKsvQs4IFWYkfM0CPDFnHTi_LiV_wFo3WnfDvmqNiRcf_S5fMCO4CJN4owtaYnAWRl5gU9Fr-SGKzSklXvTPEtmdQ8fhEk8pHZYyl9tMCIhAKr7Xy-C-QEQaUe1TkgCS0bB0TFq5nl99tfxLcKdz0m00]--></g></svg>