<?xml version="1.0" encoding="us-ascii" standalone="no"?><svg xmlns="http://www.w3.org/2000/svg" xmlns:xlink="http://www.w3.org/1999/xlink" contentStyleType="text/css" height="539px" preserveAspectRatio="none" style="width:770px;height:539px;background:#FFFFFF;" version="1.1" viewBox="0 0 770 539" width="770px" zoomAndPan="magnify"><defs/><g><!--class Vertex--><g id="elem_Vertex"><rect codeLine="1" fill="#F1F1F1" height="118.4375" id="Vertex" rx="2.5" ry="2.5" style="stroke:#181818;stroke-width:0.5;" width="514" x="7" y="7"/><ellipse cx="239.75" cy="23" fill="#F1F1F1" rx="11" ry="11" style="stroke:#181818;stroke-width:1.0;"/><path d="M237.8594,27.5625 Q237.6406,27.8281 237.5,27.9063 Q237.3594,27.9844 237.1719,27.9844 Q236.7813,27.9844 236.5313,27.7188 Q236.2969,27.4531 236.2969,26.8594 L236.2969,25.7031 Q236.2969,25.0938 236.5313,24.8438 Q236.7813,24.5781 237.1719,24.5781 Q237.4688,24.5781 237.6719,24.7344 Q237.875,24.8906 237.9844,25.2656 Q238.0938,25.625 238.2031,25.7656 Q238.4531,26.0156 239.0625,26.2813 Q239.6719,26.5469 240.4063,26.5469 Q241.5469,26.5469 242.2656,26.0156 Q242.7344,25.6875 242.7344,25.2188 Q242.7344,24.9063 242.5156,24.625 Q242.2969,24.3438 241.7813,24.1719 Q241.4531,24.0469 240.2969,23.8281 Q238.9063,23.5625 238.1875,23.2031 Q237.4688,22.8438 237.0469,22.1875 Q236.6406,21.5156 236.6406,20.7344 Q236.6406,19.5156 237.6563,18.6094 Q238.6875,17.6875 240.3281,17.6875 Q240.9844,17.6875 241.5313,17.8281 Q242.0938,17.9688 242.5625,18.2656 Q242.8906,17.9531 243.2188,17.9531 Q243.5938,17.9531 243.8281,18.2188 Q244.0625,18.4688 244.0625,19.0781 L244.0625,20.3594 Q244.0625,20.9688 243.8281,21.2344 Q243.5938,21.4844 243.2188,21.4844 Q242.9063,21.4844 242.6719,21.2969 Q242.4844,21.1563 242.3906,20.7344 Q242.3125,20.3125 242.1719,20.125 Q241.9219,19.8125 241.4375,19.6094 Q240.9688,19.3906 240.3281,19.3906 Q239.4063,19.3906 238.875,19.8125 Q238.3438,20.2344 238.3438,20.7031 Q238.3438,21.0156 238.5625,21.3125 Q238.7813,21.6094 239.2031,21.7813 Q239.4844,21.8906 240.7813,22.1563 Q242.0938,22.4063 242.7969,22.7188 Q243.5,23.0156 243.9688,23.6719 Q244.4375,24.3281 244.4375,25.2344 Q244.4375,26.5 243.5469,27.25 Q242.3594,28.25 240.5313,28.25 Q239.8281,28.25 239.1563,28.0781 Q238.5,27.9063 237.8594,27.5625 Z " fill="#000000"/><text fill="#000000" font-family="sans-serif" font-size="14" lengthAdjust="spacing" textLength="40" x="260.25" y="28.7285">Vertex</text><line style="stroke:#181818;stroke-width:0.5;" x1="8" x2="520" y1="39" y2="39"/><text fill="#000000" font-family="sans-serif" font-size="14" lengthAdjust="spacing" textLength="118" x="13" y="57.5332">glm::vec3 Position;</text><text fill="#000000" font-family="sans-serif" font-size="14" lengthAdjust="spacing" textLength="102" x="13" y="75.1426">glm::vec3 Color;</text><line style="stroke:#181818;stroke-width:0.5;" x1="8" x2="520" y1="82.2188" y2="82.2188"/><text fill="#000000" font-family="sans-serif" font-size="14" lengthAdjust="spacing" textLength="490" x="13" y="100.752">static std::vector&lt;VkVertexInputBindingDescription&gt; GetBindingDescriptions();</text><text fill="#000000" font-family="sans-serif" font-size="14" lengthAdjust="spacing" textLength="502" x="13" y="118.3613">static std::vector&lt;VkVertexInputAttributeDescription&gt; GetAttributeDescriptions();</text></g><!--class Builder--><g id="elem_Builder"><rect codeLine="9" fill="#F1F1F1" height="83.2188" id="Builder" rx="2.5" ry="2.5" style="stroke:#181818;stroke-width:0.5;" width="207" x="556.5" y="24.5"/><ellipse cx="633.75" cy="40.5" fill="#F1F1F1" rx="11" ry="11" style="stroke:#181818;stroke-width:1.0;"/><path d="M631.8594,45.0625 Q631.6406,45.3281 631.5,45.4063 Q631.3594,45.4844 631.1719,45.4844 Q630.7813,45.4844 630.5313,45.2188 Q630.2969,44.9531 630.2969,44.3594 L630.2969,43.2031 Q630.2969,42.5938 630.5313,42.3438 Q630.7813,42.0781 631.1719,42.0781 Q631.4688,42.0781 631.6719,42.2344 Q631.875,42.3906 631.9844,42.7656 Q632.0938,43.125 632.2031,43.2656 Q632.4531,43.5156 633.0625,43.7813 Q633.6719,44.0469 634.4063,44.0469 Q635.5469,44.0469 636.2656,43.5156 Q636.7344,43.1875 636.7344,42.7188 Q636.7344,42.4063 636.5156,42.125 Q636.2969,41.8438 635.7813,41.6719 Q635.4531,41.5469 634.2969,41.3281 Q632.9063,41.0625 632.1875,40.7031 Q631.4688,40.3438 631.0469,39.6875 Q630.6406,39.0156 630.6406,38.2344 Q630.6406,37.0156 631.6563,36.1094 Q632.6875,35.1875 634.3281,35.1875 Q634.9844,35.1875 635.5313,35.3281 Q636.0938,35.4688 636.5625,35.7656 Q636.8906,35.4531 637.2188,35.4531 Q637.5938,35.4531 637.8281,35.7188 Q638.0625,35.9688 638.0625,36.5781 L638.0625,37.8594 Q638.0625,38.4688 637.8281,38.7344 Q637.5938,38.9844 637.2188,38.9844 Q636.9063,38.9844 636.6719,38.7969 Q636.4844,38.6563 636.3906,38.2344 Q636.3125,37.8125 636.1719,37.625 Q635.9219,37.3125 635.4375,37.1094 Q634.9688,36.8906 634.3281,36.8906 Q633.4063,36.8906 632.875,37.3125 Q632.3438,37.7344 632.3438,38.2031 Q632.3438,38.5156 632.5625,38.8125 Q632.7813,39.1094 633.2031,39.2813 Q633.4844,39.3906 634.7813,39.6563 Q636.0938,39.9063 636.7969,40.2188 Q637.5,40.5156 637.9688,41.1719 Q638.4375,41.8281 638.4375,42.7344 Q638.4375,44 637.5469,44.75 Q636.3594,45.75 634.5313,45.75 Q633.8281,45.75 633.1563,45.5781 Q632.5,45.4063 631.8594,45.0625 Z " fill="#000000"/><text fill="#000000" font-family="sans-serif" font-size="14" lengthAdjust="spacing" textLength="44" x="654.25" y="46.2285">Builder</text><line style="stroke:#181818;stroke-width:0.5;" x1="557.5" x2="762.5" y1="56.5" y2="56.5"/><text fill="#000000" font-family="sans-serif" font-size="14" lengthAdjust="spacing" textLength="189" x="562.5" y="75.0332">std::vector&lt;Vertex&gt; vertices{};</text><text fill="#000000" font-family="sans-serif" font-size="14" lengthAdjust="spacing" textLength="195" x="562.5" y="92.6426">std::vector&lt;uint32_t&gt; indices{};</text><line style="stroke:#181818;stroke-width:0.5;" x1="557.5" x2="762.5" y1="99.7188" y2="99.7188"/></g><!--class Model--><g id="elem_Model"><rect codeLine="15" fill="#F1F1F1" height="347.3594" id="Model" rx="2.5" ry="2.5" style="stroke:#181818;stroke-width:0.5;" width="420" x="54" y="185"/><ellipse cx="240.75" cy="201" fill="#ADD1B2" rx="11" ry="11" style="stroke:#181818;stroke-width:1.0;"/><path d="M243.5156,196.875 Q243.6719,196.6563 243.8594,196.5469 Q244.0469,196.4375 244.2656,196.4375 Q244.6406,196.4375 244.875,196.7031 Q245.1094,196.9531 245.1094,197.5625 L245.1094,199.0156 Q245.1094,199.625 244.875,199.8906 Q244.6406,200.1563 244.2656,200.1563 Q243.9219,200.1563 243.7188,199.9531 Q243.5156,199.7656 243.4063,199.25 Q243.3594,198.8906 243.1719,198.7031 Q242.8438,198.3281 242.2344,198.1094 Q241.625,197.8906 241,197.8906 Q240.2344,197.8906 239.5938,198.2188 Q238.9688,198.5469 238.4688,199.2969 Q237.9844,200.0469 237.9844,201.0781 L237.9844,202.1719 Q237.9844,203.4063 238.875,204.2344 Q239.7656,205.0469 241.3594,205.0469 Q242.2969,205.0469 242.9531,204.7969 Q243.3438,204.6406 243.7656,204.2031 Q244.0313,203.9375 244.1719,203.8594 Q244.3281,203.7813 244.5313,203.7813 Q244.8594,203.7813 245.1094,204.0469 Q245.375,204.2969 245.375,204.6406 Q245.375,204.9844 245.0313,205.3906 Q244.5313,205.9688 243.7344,206.2969 Q242.6563,206.75 241.3594,206.75 Q239.8438,206.75 238.6406,206.125 Q237.6563,205.625 236.9688,204.5625 Q236.2813,203.4844 236.2813,202.2031 L236.2813,201.0469 Q236.2813,199.7188 236.8906,198.5781 Q237.5156,197.4219 238.6094,196.8125 Q239.7031,196.1875 240.9375,196.1875 Q241.6719,196.1875 242.3125,196.3594 Q242.9688,196.5156 243.5156,196.875 Z " fill="#000000"/><text fill="#000000" font-family="sans-serif" font-size="14" lengthAdjust="spacing" textLength="38" x="261.25" y="206.7285">Model</text><line style="stroke:#181818;stroke-width:0.5;" x1="55" x2="473" y1="217" y2="217"/><rect fill="none" height="6" style="stroke:#C82930;stroke-width:1.0;" width="6" x="62" y="228.3047"/><text fill="#000000" font-family="sans-serif" font-size="14" lengthAdjust="spacing" textLength="116" x="74" y="235.5332">Device &amp;r_Device;</text><rect fill="none" height="6" style="stroke:#C82930;stroke-width:1.0;" width="6" x="62" y="245.9141"/><text fill="#000000" font-family="sans-serif" font-size="14" lengthAdjust="spacing" textLength="159" x="74" y="253.1426">VkBuffer m_VertexBuffer;</text><rect fill="none" height="6" style="stroke:#C82930;stroke-width:1.0;" width="6" x="62" y="263.5234"/><text fill="#000000" font-family="sans-serif" font-size="14" lengthAdjust="spacing" textLength="264" x="74" y="270.752">VkDeviceMemory m_VertexBufferMemory;</text><rect fill="none" height="6" style="stroke:#C82930;stroke-width:1.0;" width="6" x="62" y="281.1328"/><text fill="#000000" font-family="sans-serif" font-size="14" lengthAdjust="spacing" textLength="156" x="74" y="288.3613">uint32_t m_VertexCount;</text><rect fill="none" height="6" style="stroke:#C82930;stroke-width:1.0;" width="6" x="62" y="298.7422"/><text fill="#000000" font-family="sans-serif" font-size="14" lengthAdjust="spacing" textLength="195" x="74" y="305.9707">bool m_HasIndexBuffer = false;</text><rect fill="none" height="6" style="stroke:#C82930;stroke-width:1.0;" width="6" x="62" y="316.3516"/><text fill="#000000" font-family="sans-serif" font-size="14" lengthAdjust="spacing" textLength="152" x="74" y="323.5801">VkBuffer m_IndexBuffer;</text><rect fill="none" height="6" style="stroke:#C82930;stroke-width:1.0;" width="6" x="62" y="333.9609"/><text fill="#000000" font-family="sans-serif" font-size="14" lengthAdjust="spacing" textLength="257" x="74" y="341.1895">VkDeviceMemory m_IndexBufferMemory;</text><rect fill="none" height="6" style="stroke:#C82930;stroke-width:1.0;" width="6" x="62" y="351.5703"/><text fill="#000000" font-family="sans-serif" font-size="14" lengthAdjust="spacing" textLength="149" x="74" y="358.7988">uint32_t m_IndexCount;</text><line style="stroke:#181818;stroke-width:0.5;" x1="55" x2="473" y1="365.875" y2="365.875"/><ellipse cx="65" cy="380.1797" fill="#84BE84" rx="3" ry="3" style="stroke:#038048;stroke-width:1.0;"/><text fill="#000000" font-family="sans-serif" font-size="14" lengthAdjust="spacing" textLength="295" x="74" y="384.4082">Model(Device &amp;device, const Builder &amp;builder);</text><ellipse cx="65" cy="397.7891" fill="#84BE84" rx="3" ry="3" style="stroke:#038048;stroke-width:1.0;"/><text fill="#000000" font-family="sans-serif" font-size="14" lengthAdjust="spacing" textLength="60" x="74" y="402.0176">~Model();</text><ellipse cx="65" cy="415.3984" fill="#84BE84" rx="3" ry="3" style="stroke:#038048;stroke-width:1.0;"/><text fill="#000000" font-family="sans-serif" font-size="14" lengthAdjust="spacing" textLength="196" x="74" y="419.627">Model(const Model &amp;) = delete;</text><ellipse cx="65" cy="433.0078" fill="#84BE84" rx="3" ry="3" style="stroke:#038048;stroke-width:1.0;"/><text fill="#000000" font-family="sans-serif" font-size="14" lengthAdjust="spacing" textLength="271" x="74" y="437.2363">Model &amp;operator=(const Model &amp;) = delete;</text><ellipse cx="65" cy="450.6172" fill="#84BE84" rx="3" ry="3" style="stroke:#038048;stroke-width:1.0;"/><text fill="#000000" font-family="sans-serif" font-size="14" lengthAdjust="spacing" textLength="293" x="74" y="454.8457">void Bind(VkCommandBuffer commandBuffer);</text><ellipse cx="65" cy="468.2266" fill="#84BE84" rx="3" ry="3" style="stroke:#038048;stroke-width:1.0;"/><text fill="#000000" font-family="sans-serif" font-size="14" lengthAdjust="spacing" textLength="297" x="74" y="472.4551">void Draw(VkCommandBuffer commandBuffer);</text><text fill="#000000" font-family="sans-serif" font-size="14" lengthAdjust="spacing" textLength="4" x="74" y="490.0645">&#160;</text><rect fill="#F24D5C" height="6" style="stroke:#C82930;stroke-width:1.0;" width="6" x="62" y="500.4453"/><text fill="#000000" font-family="sans-serif" font-size="14" lengthAdjust="spacing" textLength="394" x="74" y="507.6738">void CreateVertexBuffers(const std::vector&lt;Vertex&gt; &amp;vertices);</text><rect fill="#F24D5C" height="6" style="stroke:#C82930;stroke-width:1.0;" width="6" x="62" y="518.0547"/><text fill="#000000" font-family="sans-serif" font-size="14" lengthAdjust="spacing" textLength="393" x="74" y="525.2832">void CreateIndexBuffers(const std::vector&lt;uint32_t&gt; &amp;indices);</text></g><!--SRC=[ZP71Ri8m38RlVGgVAX3RPTnWGnf5sZWWxTJJ91GIWoBQ12LkjmcnPrzeKcXP6SibYVtvp-_OaYauGOg6y3FQH-3M9ij7enBv4DwqbIIr6b_44vrfuuEM64dkDb7bI9l7TElbvcfNq5Gg8TLcXfORkJkAJU05EyAsr_-VuZEHaQk2y5ApAr6f7gB8-ZwdXSm4cj1ewudgWGcKRfSSxVum_iKKKj7mOKaJEBeFa1Fd6RCM5bfW5fG7_jQROUauY4Mrtm5tZauk85xvGsXy0E_VlkmKy5TVLPqXxiCJk0CIjY28zGuDSpQVRl6bbWAE0-YbsqJdELDYMgpNpX1ltlejVcROnqs-AhZt1Ob1HkY_rGCs6ElwzhZ-z_1gIsIkn5yQvx74OIvdA_K0pDAVQlLq6rh8bqsBvxJ75vXhytK1-M2Drg-Ve4GNYkhiIklCPLwPRJJX9h9ccUqoqw2kUcamLwrKJ71o-040]--></g></svg>