<?xml version="1.0" encoding="us-ascii" standalone="no"?><svg xmlns="http://www.w3.org/2000/svg" xmlns:xlink="http://www.w3.org/1999/xlink" contentStyleType="text/css" height="361px" preserveAspectRatio="none" style="width:1416px;height:361px;background:#FFFFFF;" version="1.1" viewBox="0 0 1416 361" width="1416px" zoomAndPan="magnify"><defs/><g><!--class PipelineConfigInfo--><g id="elem_PipelineConfigInfo"><rect codeLine="1" fill="#F1F1F1" height="347.3594" id="PipelineConfigInfo" rx="2.5" ry="2.5" style="stroke:#181818;stroke-width:0.5;" width="435" x="7" y="7"/><ellipse cx="163.25" cy="23" fill="#F1F1F1" rx="11" ry="11" style="stroke:#181818;stroke-width:1.0;"/><path d="M161.3594,27.5625 Q161.1406,27.8281 161,27.9063 Q160.8594,27.9844 160.6719,27.9844 Q160.2813,27.9844 160.0313,27.7188 Q159.7969,27.4531 159.7969,26.8594 L159.7969,25.7031 Q159.7969,25.0938 160.0313,24.8438 Q160.2813,24.5781 160.6719,24.5781 Q160.9688,24.5781 161.1719,24.7344 Q161.375,24.8906 161.4844,25.2656 Q161.5938,25.625 161.7031,25.7656 Q161.9531,26.0156 162.5625,26.2813 Q163.1719,26.5469 163.9063,26.5469 Q165.0469,26.5469 165.7656,26.0156 Q166.2344,25.6875 166.2344,25.2188 Q166.2344,24.9063 166.0156,24.625 Q165.7969,24.3438 165.2813,24.1719 Q164.9531,24.0469 163.7969,23.8281 Q162.4063,23.5625 161.6875,23.2031 Q160.9688,22.8438 160.5469,22.1875 Q160.1406,21.5156 160.1406,20.7344 Q160.1406,19.5156 161.1563,18.6094 Q162.1875,17.6875 163.8281,17.6875 Q164.4844,17.6875 165.0313,17.8281 Q165.5938,17.9688 166.0625,18.2656 Q166.3906,17.9531 166.7188,17.9531 Q167.0938,17.9531 167.3281,18.2188 Q167.5625,18.4688 167.5625,19.0781 L167.5625,20.3594 Q167.5625,20.9688 167.3281,21.2344 Q167.0938,21.4844 166.7188,21.4844 Q166.4063,21.4844 166.1719,21.2969 Q165.9844,21.1563 165.8906,20.7344 Q165.8125,20.3125 165.6719,20.125 Q165.4219,19.8125 164.9375,19.6094 Q164.4688,19.3906 163.8281,19.3906 Q162.9063,19.3906 162.375,19.8125 Q161.8438,20.2344 161.8438,20.7031 Q161.8438,21.0156 162.0625,21.3125 Q162.2813,21.6094 162.7031,21.7813 Q162.9844,21.8906 164.2813,22.1563 Q165.5938,22.4063 166.2969,22.7188 Q167,23.0156 167.4688,23.6719 Q167.9375,24.3281 167.9375,25.2344 Q167.9375,26.5 167.0469,27.25 Q165.8594,28.25 164.0313,28.25 Q163.3281,28.25 162.6563,28.0781 Q162,27.9063 161.3594,27.5625 Z " fill="#000000"/><text fill="#000000" font-family="sans-serif" font-size="14" lengthAdjust="spacing" textLength="114" x="183.75" y="28.7285">PipelineConfigInfo</text><line style="stroke:#181818;stroke-width:0.5;" x1="8" x2="441" y1="39" y2="39"/><text fill="#000000" font-family="sans-serif" font-size="14" lengthAdjust="spacing" textLength="142" x="13" y="57.5332">// VkViewport viewport;</text><text fill="#000000" font-family="sans-serif" font-size="14" lengthAdjust="spacing" textLength="127" x="13" y="75.1426">// VkRect2D scissor;</text><text fill="#000000" font-family="sans-serif" font-size="14" lengthAdjust="spacing" textLength="314" x="13" y="92.752">// VkPipelineViewportStateCreateInfo viewportInfo;</text><text fill="#000000" font-family="sans-serif" font-size="14" lengthAdjust="spacing" textLength="378" x="13" y="110.3613">VkPipelineInputAssemblyStateCreateInfo inputAssemblyInfo;</text><text fill="#000000" font-family="sans-serif" font-size="14" lengthAdjust="spacing" textLength="355" x="13" y="127.9707">VkPipelineRasterizationStateCreateInfo rasterizationInfo;</text><text fill="#000000" font-family="sans-serif" font-size="14" lengthAdjust="spacing" textLength="344" x="13" y="145.5801">VkPipelineMultisampleStateCreateInfo multisampleInfo;</text><text fill="#000000" font-family="sans-serif" font-size="14" lengthAdjust="spacing" textLength="386" x="13" y="163.1895">VkPipelineColorBlendAttachmentState colorBlendAttachment;</text><text fill="#000000" font-family="sans-serif" font-size="14" lengthAdjust="spacing" textLength="333" x="13" y="180.7988">VkPipelineColorBlendStateCreateInfo colorBlendInfo;</text><text fill="#000000" font-family="sans-serif" font-size="14" lengthAdjust="spacing" textLength="354" x="13" y="198.4082">VkPipelineDepthStencilStateCreateInfo depthStencilInfo;</text><text fill="#000000" font-family="sans-serif" font-size="14" lengthAdjust="spacing" textLength="336" x="13" y="216.0176">std::vector&lt;VkDynamicState&gt; dynamicStatesEnables;</text><text fill="#000000" font-family="sans-serif" font-size="14" lengthAdjust="spacing" textLength="335" x="13" y="233.627">VkPipelineDynamicStateCreateInfo dynamicStateInfo;</text><text fill="#000000" font-family="sans-serif" font-size="14" lengthAdjust="spacing" textLength="347" x="13" y="251.2363">VkPipelineLayout pipelineLayout = VK_NULL_HANDLE;</text><text fill="#000000" font-family="sans-serif" font-size="14" lengthAdjust="spacing" textLength="313" x="13" y="268.8457">VkRenderPass renderPass = VK_NULL_HANDLE;</text><text fill="#000000" font-family="sans-serif" font-size="14" lengthAdjust="spacing" textLength="136" x="13" y="286.4551">uint32_t subpass = 0;</text><line style="stroke:#181818;stroke-width:0.5;" x1="8" x2="441" y1="293.5313" y2="293.5313"/><text fill="#000000" font-family="sans-serif" font-size="14" lengthAdjust="spacing" textLength="187" x="13" y="312.0645">PipelineConfigInfo() = default;</text><text fill="#000000" font-family="sans-serif" font-size="14" lengthAdjust="spacing" textLength="348" x="13" y="329.6738">PipelineConfigInfo(const PipelineConfigInfo &amp;) = delete;</text><text fill="#000000" font-family="sans-serif" font-size="14" lengthAdjust="spacing" textLength="423" x="13" y="347.2832">PipelineConfigInfo &amp;operator=(const PipelineConfigInfo &amp;) = delete;</text></g><!--class Pipeline--><g id="elem_Pipeline"><rect codeLine="22" fill="#F1F1F1" height="312.1406" id="Pipeline" rx="2.5" ry="2.5" style="stroke:#181818;stroke-width:0.5;" width="932" x="477.5" y="24.5"/><ellipse cx="914.25" cy="40.5" fill="#ADD1B2" rx="11" ry="11" style="stroke:#181818;stroke-width:1.0;"/><path d="M917.0156,36.375 Q917.1719,36.1563 917.3594,36.0469 Q917.5469,35.9375 917.7656,35.9375 Q918.1406,35.9375 918.375,36.2031 Q918.6094,36.4531 918.6094,37.0625 L918.6094,38.5156 Q918.6094,39.125 918.375,39.3906 Q918.1406,39.6563 917.7656,39.6563 Q917.4219,39.6563 917.2188,39.4531 Q917.0156,39.2656 916.9063,38.75 Q916.8594,38.3906 916.6719,38.2031 Q916.3438,37.8281 915.7344,37.6094 Q915.125,37.3906 914.5,37.3906 Q913.7344,37.3906 913.0938,37.7188 Q912.4688,38.0469 911.9688,38.7969 Q911.4844,39.5469 911.4844,40.5781 L911.4844,41.6719 Q911.4844,42.9063 912.375,43.7344 Q913.2656,44.5469 914.8594,44.5469 Q915.7969,44.5469 916.4531,44.2969 Q916.8438,44.1406 917.2656,43.7031 Q917.5313,43.4375 917.6719,43.3594 Q917.8281,43.2813 918.0313,43.2813 Q918.3594,43.2813 918.6094,43.5469 Q918.875,43.7969 918.875,44.1406 Q918.875,44.4844 918.5313,44.8906 Q918.0313,45.4688 917.2344,45.7969 Q916.1563,46.25 914.8594,46.25 Q913.3438,46.25 912.1406,45.625 Q911.1563,45.125 910.4688,44.0625 Q909.7813,42.9844 909.7813,41.7031 L909.7813,40.5469 Q909.7813,39.2188 910.3906,38.0781 Q911.0156,36.9219 912.1094,36.3125 Q913.2031,35.6875 914.4375,35.6875 Q915.1719,35.6875 915.8125,35.8594 Q916.4688,36.0156 917.0156,36.375 Z " fill="#000000"/><text fill="#000000" font-family="sans-serif" font-size="14" lengthAdjust="spacing" textLength="50" x="934.75" y="46.2285">Pipeline</text><line style="stroke:#181818;stroke-width:0.5;" x1="478.5" x2="1408.5" y1="56.5" y2="56.5"/><rect fill="none" height="6" style="stroke:#C82930;stroke-width:1.0;" width="6" x="485.5" y="67.8047"/><text fill="#000000" font-family="sans-serif" font-size="14" lengthAdjust="spacing" textLength="116" x="497.5" y="75.0332">Device &amp;r_Device;</text><rect fill="none" height="6" style="stroke:#C82930;stroke-width:1.0;" width="6" x="485.5" y="85.4141"/><text fill="#000000" font-family="sans-serif" font-size="14" lengthAdjust="spacing" textLength="253" x="497.5" y="92.6426">VkShaderModule m_VertShaderModule;</text><rect fill="none" height="6" style="stroke:#C82930;stroke-width:1.0;" width="6" x="485.5" y="103.0234"/><text fill="#000000" font-family="sans-serif" font-size="14" lengthAdjust="spacing" textLength="257" x="497.5" y="110.252">VkShaderModule m_FragShaderModule;</text><rect fill="none" height="6" style="stroke:#C82930;stroke-width:1.0;" width="6" x="485.5" y="120.6328"/><text fill="#000000" font-family="sans-serif" font-size="14" lengthAdjust="spacing" textLength="200" x="497.5" y="127.8613">VkPipeline m_GraphicsPipeline;</text><line style="stroke:#181818;stroke-width:0.5;" x1="478.5" x2="1408.5" y1="134.9375" y2="134.9375"/><ellipse cx="488.5" cy="149.2422" fill="#84BE84" rx="3" ry="3" style="stroke:#038048;stroke-width:1.0;"/><text fill="#000000" font-family="sans-serif" font-size="14" lengthAdjust="spacing" textLength="906" x="497.5" y="153.4707">Pipeline(        Device &amp;device,        const std::string &amp;vertFilePath,        const std::string &amp;fragFilePath,        const PipelineConfigInfo &amp;configInfo);</text><ellipse cx="488.5" cy="166.8516" fill="#84BE84" rx="3" ry="3" style="stroke:#038048;stroke-width:1.0;"/><text fill="#000000" font-family="sans-serif" font-size="14" lengthAdjust="spacing" textLength="72" x="497.5" y="171.0801">~Pipeline();</text><ellipse cx="488.5" cy="184.4609" fill="#84BE84" rx="3" ry="3" style="stroke:#038048;stroke-width:1.0;"/><text fill="#000000" font-family="sans-serif" font-size="14" lengthAdjust="spacing" textLength="220" x="497.5" y="188.6895">Pipeline(const Pipeline &amp;) = delete;</text><ellipse cx="488.5" cy="202.0703" fill="#84BE84" rx="3" ry="3" style="stroke:#038048;stroke-width:1.0;"/><text fill="#000000" font-family="sans-serif" font-size="14" lengthAdjust="spacing" textLength="295" x="497.5" y="206.2988">Pipeline &amp;operator=(const Pipeline &amp;) = delete;</text><ellipse cx="488.5" cy="219.6797" fill="#84BE84" rx="3" ry="3" style="stroke:#038048;stroke-width:1.0;"/><text fill="#000000" font-family="sans-serif" font-size="14" lengthAdjust="spacing" textLength="293" x="497.5" y="223.9082">void Bind(VkCommandBuffer commandBuffer);</text><ellipse cx="488.5" cy="237.2891" fill="#84BE84" rx="3" ry="3" style="stroke:#038048;stroke-width:1.0;"/><text fill="#000000" font-family="sans-serif" font-size="14" lengthAdjust="spacing" text-decoration="underline" textLength="391" x="497.5" y="241.5176">void DefaultPipelineConfigInfo(PipelineConfigInfo &amp;configInfo);</text><text fill="#000000" font-family="sans-serif" font-size="14" lengthAdjust="spacing" textLength="4" x="497.5" y="259.127">&#160;</text><rect fill="#F24D5C" height="6" style="stroke:#C82930;stroke-width:1.0;" width="6" x="485.5" y="269.5078"/><text fill="#000000" font-family="sans-serif" font-size="14" lengthAdjust="spacing" textLength="903" x="497.5" y="276.7363">void CreateGraphicsPipeline(        const std::string &amp;vertFilePath,        const std::string &amp;fragFilePath,        const PipelineConfigInfo &amp;configInfo);</text><rect fill="#F24D5C" height="6" style="stroke:#C82930;stroke-width:1.0;" width="6" x="485.5" y="287.1172"/><text fill="#000000" font-family="sans-serif" font-size="14" lengthAdjust="spacing" textLength="550" x="497.5" y="294.3457">void CreateShaderModule(const std::vector&lt;char&gt; &amp;code, VkShaderModule *pModule);</text><text fill="#000000" font-family="sans-serif" font-size="14" lengthAdjust="spacing" textLength="4" x="497.5" y="311.9551">&#160;</text><rect fill="#F24D5C" height="6" style="stroke:#C82930;stroke-width:1.0;" width="6" x="485.5" y="322.3359"/><text fill="#000000" font-family="sans-serif" font-size="14" lengthAdjust="spacing" text-decoration="underline" textLength="345" x="497.5" y="329.5645">std::vector&lt;char&gt; ReadFile(const std::string &amp;filePath);</text></g><!--SRC=[nLJ1Rjim3BtdAtGAqdL3X-xMBWMIkDsAfKMGO3uDC1I9JeJ8aY7H6RAY_VOfSMmhZhnXf_bWKoJV8ocIjcWAXcGcSf12mKIhLAmULQfxBptYddF3u88C2OUK5X9lktoOLZR4IlebMW925vZqTGw6eZR3V-2vkYBn9XRmCzS6oVOeUBOvCBoEY6N2McqyGyLUWHT84IO6tFiGgkBQ7qfOWtbKUO4ZQo5RobqRA7nZ23sd5i68NnI5LcsqyOqXz9DhWB0qooMqiLbZ2Y4dMcepbg3u296oTGQgh9gmWAKRtGxRe4DH8yXnlK1GJCWsadks1ckHtzniNT-q-HnlefsYcM07w1tXtidUAxgKOCyYUZv-C4yTIdHATxf0afyUXoJ-bZn_dqwJhwFdQ7fVeUQkN30pQYqnZHZsBeJ2JzS94biiyzBjustljTTZSd-g4ZZktcMj693Z4y5MC21zVlY-hzJbcXokow8HQaNwMp3u82JCAAx_v9SQkkhm2wqTg-MBssEIFzxgD6jThJbbEb_RIy_MjVOXr5OBJiP2yK6ycUWieugFYpG5utBtJdL2BzPrMx3N4XYLlw_0Z-klDH_uFfGqvKnzCJHV2sRFclKVktAIu69DtLW-QLx8gY7-Ph4rDNTx3ku6AjxutkHTNWfDuVL5dbFCWV9zqeDGGSTY6g9gb4rIIbNYhGoo97Ptvgiw7H_SfOKTwqdAadQttFhz1W00]--></g></svg>