<?xml version="1.0" encoding="us-ascii" standalone="no"?><svg xmlns="http://www.w3.org/2000/svg" xmlns:xlink="http://www.w3.org/1999/xlink" contentStyleType="text/css" height="273px" preserveAspectRatio="none" style="width:912px;height:273px;background:#FFFFFF;" version="1.1" viewBox="0 0 912 273" width="912px" zoomAndPan="magnify"><defs/><g><!--class PushConstantData--><g id="elem_PushConstantData"><rect codeLine="1" fill="#F1F1F1" height="83.2188" id="PushConstantData" rx="2.5" ry="2.5" style="stroke:#181818;stroke-width:0.5;" width="195" x="7" y="95"/><ellipse cx="41.8" cy="111" fill="#F1F1F1" rx="11" ry="11" style="stroke:#181818;stroke-width:1.0;"/><path d="M39.9094,115.5625 Q39.6906,115.8281 39.55,115.9063 Q39.4094,115.9844 39.2219,115.9844 Q38.8313,115.9844 38.5813,115.7188 Q38.3469,115.4531 38.3469,114.8594 L38.3469,113.7031 Q38.3469,113.0938 38.5813,112.8438 Q38.8313,112.5781 39.2219,112.5781 Q39.5188,112.5781 39.7219,112.7344 Q39.925,112.8906 40.0344,113.2656 Q40.1438,113.625 40.2531,113.7656 Q40.5031,114.0156 41.1125,114.2813 Q41.7219,114.5469 42.4563,114.5469 Q43.5969,114.5469 44.3156,114.0156 Q44.7844,113.6875 44.7844,113.2188 Q44.7844,112.9063 44.5656,112.625 Q44.3469,112.3438 43.8313,112.1719 Q43.5031,112.0469 42.3469,111.8281 Q40.9563,111.5625 40.2375,111.2031 Q39.5188,110.8438 39.0969,110.1875 Q38.6906,109.5156 38.6906,108.7344 Q38.6906,107.5156 39.7063,106.6094 Q40.7375,105.6875 42.3781,105.6875 Q43.0344,105.6875 43.5813,105.8281 Q44.1438,105.9688 44.6125,106.2656 Q44.9406,105.9531 45.2688,105.9531 Q45.6438,105.9531 45.8781,106.2188 Q46.1125,106.4688 46.1125,107.0781 L46.1125,108.3594 Q46.1125,108.9688 45.8781,109.2344 Q45.6438,109.4844 45.2688,109.4844 Q44.9563,109.4844 44.7219,109.2969 Q44.5344,109.1563 44.4406,108.7344 Q44.3625,108.3125 44.2219,108.125 Q43.9719,107.8125 43.4875,107.6094 Q43.0188,107.3906 42.3781,107.3906 Q41.4563,107.3906 40.925,107.8125 Q40.3938,108.2344 40.3938,108.7031 Q40.3938,109.0156 40.6125,109.3125 Q40.8313,109.6094 41.2531,109.7813 Q41.5344,109.8906 42.8313,110.1563 Q44.1438,110.4063 44.8469,110.7188 Q45.55,111.0156 46.0188,111.6719 Q46.4875,112.3281 46.4875,113.2344 Q46.4875,114.5 45.5969,115.25 Q44.4094,116.25 42.5813,116.25 Q41.8781,116.25 41.2063,116.0781 Q40.55,115.9063 39.9094,115.5625 Z " fill="#000000"/><text fill="#000000" font-family="sans-serif" font-size="14" lengthAdjust="spacing" textLength="119" x="60.2" y="116.7285">PushConstantData</text><line style="stroke:#181818;stroke-width:0.5;" x1="8" x2="201" y1="127" y2="127"/><text fill="#000000" font-family="sans-serif" font-size="14" lengthAdjust="spacing" textLength="178" x="13" y="145.5332">glm::mat4 modelMatrix{1.0f};</text><text fill="#000000" font-family="sans-serif" font-size="14" lengthAdjust="spacing" textLength="183" x="13" y="163.1426">glm::mat4 normalMatrix{1.0f};</text><line style="stroke:#181818;stroke-width:0.5;" x1="8" x2="201" y1="170.2188" y2="170.2188"/></g><!--class RenderSystem--><g id="elem_RenderSystem"><rect codeLine="7" fill="#F1F1F1" height="259.3125" id="RenderSystem" rx="2.5" ry="2.5" style="stroke:#181818;stroke-width:0.5;" width="668" x="237.5" y="7"/><ellipse cx="520.75" cy="23" fill="#ADD1B2" rx="11" ry="11" style="stroke:#181818;stroke-width:1.0;"/><path d="M523.5156,18.875 Q523.6719,18.6563 523.8594,18.5469 Q524.0469,18.4375 524.2656,18.4375 Q524.6406,18.4375 524.875,18.7031 Q525.1094,18.9531 525.1094,19.5625 L525.1094,21.0156 Q525.1094,21.625 524.875,21.8906 Q524.6406,22.1563 524.2656,22.1563 Q523.9219,22.1563 523.7188,21.9531 Q523.5156,21.7656 523.4063,21.25 Q523.3594,20.8906 523.1719,20.7031 Q522.8438,20.3281 522.2344,20.1094 Q521.625,19.8906 521,19.8906 Q520.2344,19.8906 519.5938,20.2188 Q518.9688,20.5469 518.4688,21.2969 Q517.9844,22.0469 517.9844,23.0781 L517.9844,24.1719 Q517.9844,25.4063 518.875,26.2344 Q519.7656,27.0469 521.3594,27.0469 Q522.2969,27.0469 522.9531,26.7969 Q523.3438,26.6406 523.7656,26.2031 Q524.0313,25.9375 524.1719,25.8594 Q524.3281,25.7813 524.5313,25.7813 Q524.8594,25.7813 525.1094,26.0469 Q525.375,26.2969 525.375,26.6406 Q525.375,26.9844 525.0313,27.3906 Q524.5313,27.9688 523.7344,28.2969 Q522.6563,28.75 521.3594,28.75 Q519.8438,28.75 518.6406,28.125 Q517.6563,27.625 516.9688,26.5625 Q516.2813,25.4844 516.2813,24.2031 L516.2813,23.0469 Q516.2813,21.7188 516.8906,20.5781 Q517.5156,19.4219 518.6094,18.8125 Q519.7031,18.1875 520.9375,18.1875 Q521.6719,18.1875 522.3125,18.3594 Q522.9688,18.5156 523.5156,18.875 Z " fill="#000000"/><text fill="#000000" font-family="sans-serif" font-size="14" lengthAdjust="spacing" textLength="93" x="541.25" y="28.7285">RenderSystem</text><line style="stroke:#181818;stroke-width:0.5;" x1="238.5" x2="904.5" y1="39" y2="39"/><rect fill="none" height="6" style="stroke:#C82930;stroke-width:1.0;" width="6" x="245.5" y="50.3047"/><text fill="#000000" font-family="sans-serif" font-size="14" lengthAdjust="spacing" textLength="116" x="257.5" y="57.5332">Device &amp;r_Device;</text><rect fill="none" height="6" style="stroke:#C82930;stroke-width:1.0;" width="6" x="245.5" y="67.9141"/><text fill="#000000" font-family="sans-serif" font-size="14" lengthAdjust="spacing" textLength="229" x="257.5" y="75.1426">VkPipelineLayout m_PipelineLayout;</text><rect fill="none" height="6" style="stroke:#C82930;stroke-width:1.0;" width="6" x="245.5" y="85.5234"/><text fill="#000000" font-family="sans-serif" font-size="14" lengthAdjust="spacing" textLength="243" x="257.5" y="92.752">std::unique_ptr&lt;Pipeline&gt; up_Pipeline;</text><line style="stroke:#181818;stroke-width:0.5;" x1="238.5" x2="904.5" y1="99.8281" y2="99.8281"/><ellipse cx="248.5" cy="114.1328" fill="#84BE84" rx="3" ry="3" style="stroke:#038048;stroke-width:1.0;"/><text fill="#000000" font-family="sans-serif" font-size="14" lengthAdjust="spacing" textLength="642" x="257.5" y="118.3613">RenderSystem(Device &amp;device, VkRenderPass renderPass, VkDescriptorSetLayout globalSetLayout);</text><ellipse cx="248.5" cy="131.7422" fill="#84BE84" rx="3" ry="3" style="stroke:#038048;stroke-width:1.0;"/><text fill="#000000" font-family="sans-serif" font-size="14" lengthAdjust="spacing" textLength="115" x="257.5" y="135.9707">~RenderSystem();</text><ellipse cx="248.5" cy="149.3516" fill="#84BE84" rx="3" ry="3" style="stroke:#038048;stroke-width:1.0;"/><text fill="#000000" font-family="sans-serif" font-size="14" lengthAdjust="spacing" textLength="306" x="257.5" y="153.5801">RenderSystem(const RenderSystem &amp;) = delete;</text><ellipse cx="248.5" cy="166.9609" fill="#84BE84" rx="3" ry="3" style="stroke:#038048;stroke-width:1.0;"/><text fill="#000000" font-family="sans-serif" font-size="14" lengthAdjust="spacing" textLength="381" x="257.5" y="171.1895">RenderSystem &amp;operator=(const RenderSystem &amp;) = delete;</text><text fill="#000000" font-family="sans-serif" font-size="14" lengthAdjust="spacing" textLength="4" x="257.5" y="188.7988">&#160;</text><ellipse cx="248.5" cy="202.1797" fill="#84BE84" rx="3" ry="3" style="stroke:#038048;stroke-width:1.0;"/><text fill="#000000" font-family="sans-serif" font-size="14" lengthAdjust="spacing" textLength="617" x="257.5" y="206.4082">void RenderGameObjects(FrameInfo &amp;frameInfo, std::vector&lt;DivineGameObject&gt; &amp;gameObjects);</text><text fill="#000000" font-family="sans-serif" font-size="14" lengthAdjust="spacing" textLength="4" x="257.5" y="224.0176">&#160;</text><rect fill="#F24D5C" height="6" style="stroke:#C82930;stroke-width:1.0;" width="6" x="245.5" y="234.3984"/><text fill="#000000" font-family="sans-serif" font-size="14" lengthAdjust="spacing" textLength="431" x="257.5" y="241.627">void CreatePipelineLayout(VkDescriptorSetLayout globalSetLayout);</text><rect fill="#F24D5C" height="6" style="stroke:#C82930;stroke-width:1.0;" width="6" x="245.5" y="252.0078"/><text fill="#000000" font-family="sans-serif" font-size="14" lengthAdjust="spacing" textLength="308" x="257.5" y="259.2363">void CreatePipeline(VkRenderPass renderPass);</text></g><!--SRC=[bL9DQyCm3BtdL-WKKjQD3NPAFouD6uEDbHLw6XGtKJgliPt9IbWftM-VstoKb9OnNomzlwSdsRPCHSmmBUp7n6ZBGdCaM7XR3znQPIeCbU1xK2R1x4KmoU_jtSrjkXkS4BGX9KuOEy-BCs4jlA5Ea6ORowZgqbSTC8Ymb362dnpsFipNrV5qBwSst1z4Q6EIEHkQ8J-BZIdOzM6M8clptg3sUF_fkBHu1uttWtSWy7im0ZSnCfwJW6zo9E5Q6FsfhkMbaKdDUXGANvUV6BCD7iWbJperuATDs0VBIHYMZc1e6CbIQZngnk2lZWLwjS5rPJ0X58nJcMFcHDLb1F-vihDrWWklSJHldeyMLTGKcw-xlO1QT866U9YuqFAhm4NED6nOOoZoLk9-r2y0]--></g></svg>