<?xml version="1.0" encoding="us-ascii" standalone="no"?><svg xmlns="http://www.w3.org/2000/svg" xmlns:xlink="http://www.w3.org/1999/xlink" contentStyleType="text/css" height="491px" preserveAspectRatio="none" style="width:1440px;height:491px;background:#FFFFFF;" version="1.1" viewBox="0 0 1440 491" width="1440px" zoomAndPan="magnify"><defs/><g><!--class Renderer--><g id="elem_Renderer"><rect codeLine="1" fill="#F1F1F1" height="470.625" id="Renderer" rx="2.5" ry="2.5" style="stroke:#181818;stroke-width:0.5;" width="1419" x="7" y="7"/><ellipse cx="682.25" cy="23" fill="#ADD1B2" rx="11" ry="11" style="stroke:#181818;stroke-width:1.0;"/><path d="M685.0156,18.875 Q685.1719,18.6563 685.3594,18.5469 Q685.5469,18.4375 685.7656,18.4375 Q686.1406,18.4375 686.375,18.7031 Q686.6094,18.9531 686.6094,19.5625 L686.6094,21.0156 Q686.6094,21.625 686.375,21.8906 Q686.1406,22.1563 685.7656,22.1563 Q685.4219,22.1563 685.2188,21.9531 Q685.0156,21.7656 684.9063,21.25 Q684.8594,20.8906 684.6719,20.7031 Q684.3438,20.3281 683.7344,20.1094 Q683.125,19.8906 682.5,19.8906 Q681.7344,19.8906 681.0938,20.2188 Q680.4688,20.5469 679.9688,21.2969 Q679.4844,22.0469 679.4844,23.0781 L679.4844,24.1719 Q679.4844,25.4063 680.375,26.2344 Q681.2656,27.0469 682.8594,27.0469 Q683.7969,27.0469 684.4531,26.7969 Q684.8438,26.6406 685.2656,26.2031 Q685.5313,25.9375 685.6719,25.8594 Q685.8281,25.7813 686.0313,25.7813 Q686.3594,25.7813 686.6094,26.0469 Q686.875,26.2969 686.875,26.6406 Q686.875,26.9844 686.5313,27.3906 Q686.0313,27.9688 685.2344,28.2969 Q684.1563,28.75 682.8594,28.75 Q681.3438,28.75 680.1406,28.125 Q679.1563,27.625 678.4688,26.5625 Q677.7813,25.4844 677.7813,24.2031 L677.7813,23.0469 Q677.7813,21.7188 678.3906,20.5781 Q679.0156,19.4219 680.1094,18.8125 Q681.2031,18.1875 682.4375,18.1875 Q683.1719,18.1875 683.8125,18.3594 Q684.4688,18.5156 685.0156,18.875 Z " fill="#000000"/><text fill="#000000" font-family="sans-serif" font-size="14" lengthAdjust="spacing" textLength="60" x="702.75" y="28.7285">Renderer</text><line style="stroke:#181818;stroke-width:0.5;" x1="8" x2="1425" y1="39" y2="39"/><rect fill="none" height="6" style="stroke:#C82930;stroke-width:1.0;" width="6" x="15" y="50.3047"/><text fill="#000000" font-family="sans-serif" font-size="14" lengthAdjust="spacing" textLength="128" x="27" y="57.5332">Window &amp;r_Window;</text><rect fill="none" height="6" style="stroke:#C82930;stroke-width:1.0;" width="6" x="15" y="67.9141"/><text fill="#000000" font-family="sans-serif" font-size="14" lengthAdjust="spacing" textLength="116" x="27" y="75.1426">Device &amp;r_Device;</text><rect fill="none" height="6" style="stroke:#C82930;stroke-width:1.0;" width="6" x="15" y="85.5234"/><text fill="#000000" font-family="sans-serif" font-size="14" lengthAdjust="spacing" textLength="285" x="27" y="92.752">std::unique_ptr&lt;SwapChain&gt; up_SwapChain;</text><rect fill="none" height="6" style="stroke:#C82930;stroke-width:1.0;" width="6" x="15" y="103.1328"/><text fill="#000000" font-family="sans-serif" font-size="14" lengthAdjust="spacing" textLength="336" x="27" y="110.3613">std::vector&lt;VkCommandBuffer&gt; m_CommandBuffers;</text><rect fill="none" height="6" style="stroke:#C82930;stroke-width:1.0;" width="6" x="15" y="120.7422"/><text fill="#000000" font-family="sans-serif" font-size="14" lengthAdjust="spacing" textLength="197" x="27" y="127.9707">uint32_t m_CurrentImageIndex;</text><rect fill="none" height="6" style="stroke:#C82930;stroke-width:1.0;" width="6" x="15" y="138.3516"/><text fill="#000000" font-family="sans-serif" font-size="14" lengthAdjust="spacing" textLength="188" x="27" y="145.5801">int m_CurrentFrameIndex = 0;</text><rect fill="none" height="6" style="stroke:#C82930;stroke-width:1.0;" width="6" x="15" y="155.9609"/><text fill="#000000" font-family="sans-serif" font-size="14" lengthAdjust="spacing" textLength="181" x="27" y="163.1895">bool m_IsFrameStart = false;</text><line style="stroke:#181818;stroke-width:0.5;" x1="8" x2="1425" y1="170.2656" y2="170.2656"/><ellipse cx="18" cy="184.5703" fill="#84BE84" rx="3" ry="3" style="stroke:#038048;stroke-width:1.0;"/><text fill="#000000" font-family="sans-serif" font-size="14" lengthAdjust="spacing" textLength="286" x="27" y="188.7988">Renderer(Window &amp;window, Device &amp;device);</text><ellipse cx="18" cy="202.1797" fill="#84BE84" rx="3" ry="3" style="stroke:#038048;stroke-width:1.0;"/><text fill="#000000" font-family="sans-serif" font-size="14" lengthAdjust="spacing" textLength="82" x="27" y="206.4082">~Renderer();</text><ellipse cx="18" cy="219.7891" fill="#84BE84" rx="3" ry="3" style="stroke:#038048;stroke-width:1.0;"/><text fill="#000000" font-family="sans-serif" font-size="14" lengthAdjust="spacing" textLength="240" x="27" y="224.0176">Renderer(const Renderer &amp;) = delete;</text><ellipse cx="18" cy="237.3984" fill="#84BE84" rx="3" ry="3" style="stroke:#038048;stroke-width:1.0;"/><text fill="#000000" font-family="sans-serif" font-size="14" lengthAdjust="spacing" textLength="315" x="27" y="241.627">Renderer &amp;operator=(const Renderer &amp;) = delete;</text><ellipse cx="18" cy="255.0078" fill="#84BE84" rx="3" ry="3" style="stroke:#038048;stroke-width:1.0;"/><text fill="#000000" font-family="sans-serif" font-size="14" lengthAdjust="spacing" textLength="403" x="27" y="259.2363">inline bool IsFrameInProgress() const { return m_IsFrameStart; }</text><ellipse cx="18" cy="272.6172" fill="#84BE84" rx="3" ry="3" style="stroke:#038048;stroke-width:1.0;"/><text fill="#000000" font-family="sans-serif" font-size="14" lengthAdjust="spacing" textLength="1393" x="27" y="276.8457">inline VkCommandBuffer GetCurrentCommandBuffer() const    {        assert(m_IsFrameStart &amp;&amp;               "Can't get command buffer when frame not in progress");        return m_CommandBuffers[m_CurrentFrameIndex];    }</text><ellipse cx="18" cy="290.2266" fill="#84BE84" rx="3" ry="3" style="stroke:#038048;stroke-width:1.0;"/><text fill="#000000" font-family="sans-serif" font-size="14" lengthAdjust="spacing" textLength="1049" x="27" y="294.4551">inline int GetFrameIndex() const    {        assert(m_IsFrameStart &amp;&amp;               "Can't get frame index when frame not in progress");        return m_CurrentFrameIndex;    }</text><ellipse cx="18" cy="307.8359" fill="#84BE84" rx="3" ry="3" style="stroke:#038048;stroke-width:1.0;"/><text fill="#000000" font-family="sans-serif" font-size="14" lengthAdjust="spacing" textLength="642" x="27" y="312.0645">inline VkRenderPass GetSwapChainRenderPass() const { return up_SwapChain-&gt;GetRenderPass(); }</text><ellipse cx="18" cy="325.4453" fill="#84BE84" rx="3" ry="3" style="stroke:#038048;stroke-width:1.0;"/><text fill="#000000" font-family="sans-serif" font-size="14" lengthAdjust="spacing" textLength="539" x="27" y="329.6738">inline float GetAspectRatio() const { return up_SwapChain-&gt;GetExtentAspectRatio(); }</text><ellipse cx="18" cy="343.0547" fill="#84BE84" rx="3" ry="3" style="stroke:#038048;stroke-width:1.0;"/><text fill="#000000" font-family="sans-serif" font-size="14" lengthAdjust="spacing" textLength="213" x="27" y="347.2832">VkCommandBuffer BeginFrame();</text><ellipse cx="18" cy="360.6641" fill="#84BE84" rx="3" ry="3" style="stroke:#038048;stroke-width:1.0;"/><text fill="#000000" font-family="sans-serif" font-size="14" lengthAdjust="spacing" textLength="110" x="27" y="364.8926">void EndFrame();</text><ellipse cx="18" cy="378.2734" fill="#84BE84" rx="3" ry="3" style="stroke:#038048;stroke-width:1.0;"/><text fill="#000000" font-family="sans-serif" font-size="14" lengthAdjust="spacing" textLength="450" x="27" y="382.502">void BeginSwapChainRenderPass(VkCommandBuffer commandBuffer);</text><ellipse cx="18" cy="395.8828" fill="#84BE84" rx="3" ry="3" style="stroke:#038048;stroke-width:1.0;"/><text fill="#000000" font-family="sans-serif" font-size="14" lengthAdjust="spacing" textLength="439" x="27" y="400.1113">void EndSwapChainRenderPass(VkCommandBuffer commandBuffer);</text><text fill="#000000" font-family="sans-serif" font-size="14" lengthAdjust="spacing" textLength="4" x="27" y="417.7207">&#160;</text><rect fill="#F24D5C" height="6" style="stroke:#C82930;stroke-width:1.0;" width="6" x="15" y="428.1016"/><text fill="#000000" font-family="sans-serif" font-size="14" lengthAdjust="spacing" textLength="173" x="27" y="435.3301">void RecreateSwapChain();</text><rect fill="#F24D5C" height="6" style="stroke:#C82930;stroke-width:1.0;" width="6" x="15" y="445.7109"/><text fill="#000000" font-family="sans-serif" font-size="14" lengthAdjust="spacing" textLength="196" x="27" y="452.9395">void CreateCommandBuffers();</text><rect fill="#F24D5C" height="6" style="stroke:#C82930;stroke-width:1.0;" width="6" x="15" y="463.3203"/><text fill="#000000" font-family="sans-serif" font-size="14" lengthAdjust="spacing" textLength="183" x="27" y="470.5488">void FreeCommandBuffers();</text></g><!--SRC=[hLJ1Rjim3BttAuWUl0HRWM6xDKs0rMk7t8eKw0xTOAWsdGgr9O-Yam91z-sJPLck7H-wORfOfXwVtfD8fOKm1ZQeCYIaayC9sF4-16RVfShq7gAz-tw0hxYJAKAKkUzyuV4_VeUC40kHL2l3uHUYEImXmm8Pnr28T8KaMDFo3LbI5L8XF6XTmDfSaoXnhMv8RmcDcSsXPJW08TUae4myw9O5yG9UXZHtJx4kIw6oophFxORVaEEQ21KFue7NZWFuOSyGYMV37I2AO3XEOw7UCMoHBOVZX8Tsi_qZAiYRL52QhIIel8_J-Q9B3pu6Wioz3RH2_H5a-FpJ9OqSIiMDgnxrdxoqkcN3-BT6nhgdPDyzjKLmqrIgrN-x5rNyAAJgmyUNNLT9m9sjRDPhyD7TvuKMxco-c0fJtWYM-WsSLyzirGzoUkfnFLtYLYhdj6-HdPOPNAbiAkpmKrx7nEdhloFgVs5m56SjnGPJGi4OU3gPVZrsgyEA746k2IS07j4zC9IqiowpUsWeQMTTt71sVbuh-Ql6f6Aw2BfMW_iPm7VsVZHTZ6olZZgfIwfjftp-b71VeUjIR7s5UapJJ1C5R1-fZnt4FKoZFbf2BWfZtRpy0G00]--></g></svg>